<svg width="343" height="473" viewBox="0 0 343 473" fill="none" xmlns="http://www.w3.org/2000/svg">
<path d="M35.4096 88.5738C39.7893 45.4085 41.9792 23.8258 56.7495 11.7767C71.5199 -0.272434 93.1026 1.91743 136.268 6.29717L255.704 18.4156C298.869 22.7954 320.452 24.9853 332.501 39.7556C344.55 54.526 342.36 76.1086 337.98 119.274L311.118 384.023C306.738 427.189 304.548 448.771 289.778 460.821C275.007 472.87 253.425 470.68 210.259 466.3L90.8236 454.182C47.6583 449.802 26.0756 447.612 14.0265 432.842C1.97735 418.071 4.16722 396.489 8.54696 353.323L35.4096 88.5738Z" fill="#D9D9D9" fill-opacity="0.2"/>
<path d="M176.121 13.7055C187.289 14.8624 201.133 16.1144 212.174 17.3287C212.329 17.3457 212.484 17.3627 212.639 17.3798C217.152 17.876 221.748 18.3978 227.31 19.0291C228.018 19.1095 228.744 19.1921 229.486 19.2762C236.078 20.0243 244.177 20.9409 255.215 22.1663C255.251 22.1702 255.286 22.1742 255.322 22.1781C292.528 25.5125 320.905 31.4327 325.929 38.4438C327.233 39.5594 328.446 40.7916 329.568 42.1478C339.45 53.6594 338.471 72.8623 336.529 96.2387C336.319 98.6529 336.09 101.118 335.844 103.692C335.65 105.72 335.359 107.463 335.209 107.483C335.057 107.53 335.105 105.836 335.299 103.807C335.54 101.292 335.764 98.8704 335.969 96.5246C335.97 96.5137 335.971 96.5028 335.972 96.4919C338.007 72.5366 338.776 53.6301 329.153 42.4863C328.236 41.3787 327.263 40.3611 326.223 39.4184C321.549 32.2031 293.034 26.043 255.268 22.7104C254.95 22.6752 254.632 22.6399 254.313 22.6045C243.158 21.3661 234.968 20.4399 228.335 19.6873C227.609 19.6049 226.901 19.5244 226.213 19.4463C226.197 19.4445 226.181 19.4426 226.165 19.4407C220.567 18.8054 216.164 18.3052 211.845 17.8303C211.753 17.8203 211.661 17.8104 211.569 17.8004C200.403 16.5725 186.823 15.3488 175.991 14.2267C173.924 14.0125 172.275 13.7218 172.311 13.5778C172.348 13.4341 174.054 13.4915 176.121 13.7055ZM124.798 456.019C115.113 455.212 102.584 453.941 90.9741 452.699C89.6097 452.553 88.28 452.41 86.988 452.269C74.1973 450.901 62.7776 449.437 57.3905 448.546C52.168 447.695 46.3217 446.779 39.6047 445.063C38.0695 444.665 36.4723 444.212 34.8771 443.697C29.5724 441.972 23.8012 439.492 18.9353 435.01C17.7302 433.9 16.6455 432.729 15.6611 431.508C3.09705 413.526 8.03707 395.997 7.84174 385.39C8.00299 382.956 8.17753 380.672 8.35271 378.523C8.353 378.52 8.3533 378.516 8.3536 378.513C9.02104 370.45 9.63295 364.436 10.2475 358.895C10.4563 357.025 10.6485 355.326 10.8479 353.557C11.7043 345.978 12.4869 339.172 13.4418 331.267C15.059 317.879 16.9672 298.77 18.0525 286.319C18.1121 285.636 18.1727 284.937 18.2342 284.229C19.0203 275.203 19.9883 264.089 21.559 247.436C22.8639 233.599 24.0943 221.55 25.204 210.887C25.5221 207.832 25.8278 204.916 26.121 202.117C26.8608 195.051 27.5231 188.728 28.1158 182.768C31.7912 145.808 34.0491 124.507 35.5521 111.128C36.708 100.838 37.4343 95.0986 37.9584 90.958C38.0528 90.2123 38.1407 89.5185 38.2234 88.8593C38.2802 88.4053 38.3344 87.9698 38.3862 87.547C39.533 78.284 40.4472 69.7598 41.8491 59.5884C42.1634 57.3403 42.506 55.0183 42.9037 52.5735C44.2198 44.4623 45.5292 38.5515 46.8517 34.0825C47.4259 32.1371 48.0047 30.4387 48.6034 28.8947C48.6146 28.8658 48.6257 28.837 48.6369 28.8082C48.7217 28.5907 48.807 28.377 48.8923 28.1666C48.9567 28.0079 49.0209 27.8503 49.0863 27.6938C49.1103 27.6314 49.1323 27.5763 49.1489 27.5344C49.1623 27.5007 49.1728 27.4745 49.1795 27.4577C49.1807 27.4545 49.1819 27.4513 49.183 27.448C49.3054 27.1429 49.4174 26.8867 49.4403 26.8342C49.4803 26.7425 49.5167 26.6619 49.5351 26.6207C49.6326 26.4029 49.7614 26.1264 49.8482 25.9447C50.0792 25.4646 50.4646 24.6556 51.1549 23.4326C51.7472 22.3809 52.3521 21.3845 53.1789 20.2077C53.231 20.1337 53.283 20.0605 53.3363 19.9862C54.1585 18.8451 55.1762 17.5597 56.6313 16.1074C57.3938 15.3468 58.19 14.6989 58.792 14.2805C59.2362 13.9713 59.5639 13.7909 59.6855 13.7757C59.8569 13.7566 59.5801 14.061 59.0339 14.5769C58.6661 14.9251 58.1871 15.3642 57.6477 15.8708C56.2614 17.177 55.2802 18.3234 54.4358 19.4124C54.3826 19.4815 54.3296 19.5508 54.2768 19.6204C53.4061 20.7705 52.6569 21.9074 51.9041 23.1988C51.6556 23.6258 51.405 24.0763 51.1757 24.5067C50.7737 25.2685 50.3328 26.1692 49.8558 27.2666C49.7598 27.4874 49.6585 27.7242 49.5632 27.9537C48.9348 29.4634 48.2768 31.2631 47.6271 33.3696C46.1045 38.2846 44.6782 44.7808 43.2792 53.6155C42.9097 55.9395 42.5848 58.1727 42.2768 60.407C40.9218 70.3383 39.9556 79.3124 38.7746 88.9153C38.7463 89.1472 38.7178 89.3795 38.6893 89.6123C38.5234 90.9641 38.3591 92.2602 38.1838 93.646C37.6641 97.7534 37.0434 102.658 35.9748 112.17C34.5431 124.916 32.3361 145.709 28.6815 182.459C28.0594 188.715 27.3528 195.46 26.6003 202.646C26.3131 205.389 26.0192 208.201 25.7205 211.071C24.628 221.568 23.4365 233.238 22.1764 246.597C20.6409 262.878 19.6989 273.69 18.9163 282.677C18.8894 282.987 18.8625 283.297 18.8357 283.608C18.8021 283.993 18.7688 284.376 18.7357 284.755C17.5791 298.023 15.5537 318.356 13.7671 333.146C12.8976 340.344 12.1767 346.594 11.3825 353.611C11.1491 355.677 10.9172 357.73 10.6698 359.948C10.1365 364.777 9.61398 369.887 8.94576 377.814C8.7634 380.015 8.56967 382.482 8.3907 385.152C8.54683 395.869 3.69489 413.519 16.0742 431.171C17.1326 432.485 18.3109 433.739 19.6281 434.919C24.3283 439.115 29.7625 441.468 34.9996 443.177C36.6136 443.699 38.2602 444.167 39.8641 444.581C46.5829 446.296 53.0728 447.319 59.1282 448.266C64.0858 449.059 75.2042 450.473 87.6069 451.8C88.7265 451.921 89.8678 452.044 91.0279 452.169C102.478 453.396 114.23 454.584 122.866 455.304C123.853 455.387 124.85 455.47 125.844 455.553C134.412 456.269 143.148 456.999 150.194 457.454C165.92 458.236 187.9 460.212 210.647 462.481C233.546 464.509 257.834 468.454 275.063 464.188C275.507 464.07 275.936 463.949 276.375 463.817C280.61 462.554 284.346 460.594 287.496 458.023C300.162 447.405 301.481 430.339 303.579 418.79C305.302 406.787 306.105 397.872 306.622 393.111C306.674 392.609 306.721 392.149 306.764 391.734C306.802 391.36 306.834 391.044 306.864 390.752C307.117 388.277 307.343 385.979 307.569 383.663C307.74 381.916 307.906 380.19 308.076 378.429C308.098 378.207 308.119 377.985 308.141 377.764C308.555 373.471 308.992 368.967 309.533 363.646C311.548 343.858 313.161 327.724 314.551 313.764C314.809 311.179 315.059 308.666 315.303 306.216C315.304 306.209 315.305 306.202 315.305 306.194C316.376 295.442 317.325 285.904 318.243 276.854C319.917 260.351 321.015 249.201 321.858 240.527C322.123 237.806 322.366 235.3 322.594 232.934C323.089 227.819 323.521 223.351 323.981 218.744C324.847 210.081 325.619 202.105 326.381 194.248C326.448 193.548 326.517 192.849 326.584 192.15C327.41 183.634 328.23 175.2 329.133 166.287C329.343 164.219 329.636 162.516 329.786 162.487C329.937 162.461 329.888 164.117 329.679 166.184C328.801 174.841 328.001 183.068 327.176 191.582C327.108 192.284 327.039 192.99 326.971 193.697C326.211 201.533 325.424 209.655 324.543 218.479C324.099 222.92 323.691 227.141 323.206 232.155C322.974 234.548 322.725 237.124 322.446 239.991C321.59 248.797 320.478 260.095 318.788 276.757C317.881 285.697 316.943 295.113 315.874 305.859C315.628 308.324 315.376 310.861 315.115 313.477C313.721 327.472 312.1 343.689 310.075 363.586C309.563 368.614 309.149 372.884 308.736 377.158C308.713 377.397 308.689 377.637 308.666 377.877C308.481 379.792 308.295 381.722 308.1 383.717C307.882 385.95 307.659 388.203 307.411 390.63C307.349 391.237 307.268 392.033 307.17 392.987C306.652 397.756 305.848 406.689 304.123 418.746C302.003 430.344 300.765 447.551 287.832 458.435C284.602 461.073 280.755 463.08 276.418 464.36C276.295 464.396 276.177 464.431 276.056 464.465C248.78 469.61 231.355 464.402 219.201 464.087C216.093 463.809 213.248 463.545 210.565 463.293C204.88 462.758 200.177 462.296 196.083 461.889C194.939 461.775 193.856 461.668 192.823 461.565C188.361 461.12 184.836 460.769 181.309 460.448C170.64 459.478 162.98 458.884 153.698 458.285C145.83 457.777 136.209 456.973 127.782 456.268C127.769 456.267 127.756 456.266 127.744 456.265C126.744 456.181 125.759 456.099 124.798 456.019ZM81.7824 5.90031C83.7846 5.75018 85.4107 5.82365 85.4013 5.9689C85.382 6.11825 83.7359 6.28504 81.7514 6.43598C76.9997 6.79741 72.3617 7.56021 68.0939 9.10697C66.308 9.75002 64.9009 10.3211 64.8493 10.1799C64.8014 10.0425 66.1591 9.23411 67.9782 8.5833C72.3141 7.02167 77.0002 6.26018 81.7824 5.90031ZM133.158 459.527C131.137 459.352 129.137 459.056 128.692 458.866C128.251 458.677 129.532 458.665 131.551 458.84C132.619 458.933 134.375 459.082 136.738 459.284C148.803 460.311 176.739 462.689 210.314 465.764C224.12 466.976 238.83 468.609 253.809 468.902C258.153 468.96 261.996 468.85 265.673 468.515C273.942 467.679 281.622 465.982 289.026 459.899C295.549 454.663 300.596 445.489 303.491 431.755C306.807 416.114 308.091 399.942 309.82 383.892C318.911 295.606 328.184 207.389 337.057 119.18C338.791 96.5404 343.699 73.1562 337.634 51.4129C336.301 47.422 334.297 43.6941 331.633 40.4638C312.854 20.5623 281.773 23.581 255.58 19.634C250.291 19.0975 245 18.5599 239.705 18.0214C209.117 14.9103 153.074 8.94984 139.884 7.58344C137.815 7.36916 136.167 7.07853 136.203 6.93456C136.24 6.79077 137.946 6.84802 140.013 7.06218C153.11 8.41893 208.967 14.3601 239.44 17.4595C244.841 18.0088 250.238 18.5571 255.634 19.1044C281.839 23.088 312.871 19.905 332.046 40.1267C334.639 43.2724 336.622 46.8831 337.969 50.7461C344.391 72.8519 339.326 96.407 337.641 119.24C328.901 207.439 319.952 295.748 310.963 384.008C309.241 400.126 307.977 416.343 304.603 432.175C301.67 446.054 296.299 455.404 289.585 460.584C282.132 466.481 274.6 468.081 266.405 468.981C262.714 469.351 258.8 469.485 254.421 469.443C239.163 469.195 224.225 467.52 210.26 466.299C177.692 463.321 150.615 461.015 138.556 459.989C136.118 459.781 134.287 459.625 133.158 459.527ZM37.1547 447.331C29.3141 445.178 19.8771 441.469 13.3843 433.365C0.941929 417.968 4.3572 395.405 5.50647 377.23C6.25332 368.739 7.11011 360.672 7.87283 353.255C8.3719 348.427 8.83825 343.905 9.26085 339.788C10.9169 323.656 12.0741 313.512 13.2218 303.452C13.234 303.344 13.2463 303.236 13.2586 303.128C14.4055 293.075 15.5513 283.014 17.2334 266.63C18.9292 250.111 21.1627 227.242 23.4155 204.174C23.4174 204.156 23.4192 204.138 23.421 204.12C25.6618 181.175 27.667 157.874 29.3933 141.064C31.4574 120.964 33.2875 103.512 34.8877 88.5209C37.864 59.8181 40.4927 40.0076 45.1443 28.7785C47.6016 22.4891 51.3556 16.3662 56.8972 11.9577C79.3325 -3.99213 110.04 5.04224 135.121 6.79442C138.739 7.30431 132.579 7.0791 125.969 6.30424C125.731 6.27732 125.493 6.2505 125.256 6.22381C122.971 5.9678 120.983 5.74847 118.173 5.46568C114.087 5.06856 111.08 4.81191 108.3 4.59493C103.698 5.094 74.6684 -1.43663 57.2289 12.3643C50.2659 17.8844 46.9106 25.5162 45.1235 30.3528C40.9995 40.9739 38.626 60.17 35.8838 88.622C34.39 103.555 32.6309 121.057 30.547 141.351C28.8527 157.85 26.2522 180.62 23.9993 203.687C23.9931 203.75 23.987 203.814 23.9808 203.877C21.7444 226.775 19.4894 249.867 17.7651 266.662C16.0223 283.638 14.8238 294.158 13.6618 304.343C13.6504 304.442 13.6391 304.541 13.6277 304.64C12.4907 314.607 11.3869 324.284 9.79199 339.82C9.36641 343.966 8.89966 348.494 8.40212 353.309C7.62306 360.889 6.75052 369.099 5.99828 377.722C4.83009 395.845 1.65891 418.098 13.7964 433.029C20.1013 440.9 29.2566 444.581 36.9771 446.73C39.0032 447.295 40.6732 447.802 40.7377 447.97C40.7926 448.131 39.1851 447.889 37.1547 447.331ZM35.7907 450.391C26.8042 447.993 17.1315 443.614 10.6648 435.584C-7.70623 408.652 2.99058 379.407 4.09851 352.872C7.09413 324.039 10.1951 295.325 13.3608 266.871C15.0753 250.171 17.4811 226.868 19.8842 203.598C19.9116 203.334 19.9389 203.072 19.9663 202.808C22.3433 179.79 24.7098 156.871 26.3996 140.417C28.4464 120.485 30.2338 103.138 31.7856 88.2061C34.7178 59.2601 37.2089 39.0737 42.2245 27.1384C46.2513 17.2083 51.1273 12.479 54.8364 9.43148C57.5008 7.30138 59.8567 5.86301 62.6959 4.52216C62.8854 4.43386 63.0746 4.34763 63.2633 4.26336C63.2756 4.25737 63.2879 4.25139 63.3003 4.24542C63.5354 4.13291 63.7353 4.04245 63.8384 3.99639C64.0486 3.90252 64.2218 3.82926 64.2866 3.80188C64.4365 3.73856 64.5631 3.6872 64.6082 3.6689C64.7939 3.59332 64.9999 3.51227 65.1358 3.45993C66.395 2.9324 70.4168 1.65785 73.6537 1.11857C76.9652 0.530883 79.3174 0.336182 81.7934 0.180303C82.0422 0.165664 82.2923 0.151971 82.5436 0.139209C84.7626 0.029247 87.2027 -0.0315092 90.6437 0.0167422C92.724 0.0482972 94.2321 0.231147 93.9627 0.368085C93.7149 0.507654 91.8002 0.5579 89.7 0.54157C86.0766 0.513968 83.5226 0.609446 81.2969 0.751382C81.0575 0.766781 80.7994 0.784733 80.5517 0.802998C78.213 0.983669 76.1163 1.19955 73.2172 1.74309C69.0208 2.56476 65.9276 3.64014 63.2281 4.86344C60.3781 6.17726 57.9176 7.64727 55.1732 9.84433C51.1978 13.0883 46.1165 18.2561 42.1664 28.7779C37.7313 40.0288 35.2018 59.5551 32.3147 88.2598C30.7759 103.066 28.9907 120.388 26.9307 140.449C25.2378 156.934 22.8686 179.879 20.4936 202.878C20.4657 203.149 20.4378 203.419 20.41 203.689C18.0056 226.973 15.6025 250.241 13.892 266.903C10.9284 295.769 8.0594 324.377 5.17096 352.981C4.1042 379.506 -6.44112 408.618 11.3297 435.042C17.4751 442.811 26.7624 447.254 35.6011 449.784C47.7261 453.114 58.7991 454.249 69.0025 455.473C76.588 456.328 83.6757 457.029 90.4655 457.711C110.503 459.714 127.483 461.366 143.881 462.787C148.689 463.204 161.278 464.421 179.47 466.191C184.801 466.71 190.65 467.28 196.97 467.896C201.103 468.299 205.439 468.722 209.969 469.163C222.464 470.327 236.333 471.936 251.774 472.413C256.186 472.52 260.158 472.472 263.983 472.21C273.138 471.45 282.183 470.132 291.382 462.787C298.308 457.353 303.828 447.709 306.781 434.733C310.14 420.585 311.737 402.735 313.686 384.284C316.789 354.22 320.092 322.406 322.253 301.738C323.998 285.041 325.001 275.617 325.717 268.951C325.916 267.095 326.093 265.463 326.254 263.965C326.675 260.052 327.003 257.013 327.419 253.029C330.421 224.343 332.398 204.246 335.608 171.319C335.809 169.256 336.104 167.469 336.265 167.328C336.427 167.188 336.395 168.747 336.194 170.81C332.979 203.786 330.972 224.189 327.93 253.267C327.495 257.426 327.144 260.68 326.715 264.661C326.556 266.138 326.386 267.714 326.197 269.475C325.493 276.03 324.5 285.356 322.764 301.965C320.608 322.589 317.312 354.341 314.216 384.338C312.269 402.763 310.674 420.589 307.321 434.764C304.346 447.901 298.737 457.697 291.719 463.2C282.702 470.417 273.787 471.881 264.73 472.691C260.892 472.984 256.838 473.055 252.391 472.961C236.649 472.52 222.572 470.869 209.915 469.694C205.577 469.271 201.419 468.866 197.451 468.479C191.139 467.864 185.305 467.296 179.995 466.779C161.436 464.973 149.606 463.831 145.488 463.474C128.529 462.004 110.862 460.285 90.4118 458.241C83.462 457.543 76.2258 456.827 68.5612 455.959C58.4411 454.746 47.6085 453.598 35.7907 450.391ZM341.968 51.5649C342.605 53.6859 342.864 55.5873 342.752 55.7605C342.634 55.9447 342.215 54.3617 341.613 52.2521C339.964 46.4088 337.27 41.7116 334.379 38.2236C331.762 35.0392 328.998 32.7404 326.42 31.0028C316.097 24.6256 310.244 23.923 302.122 22.0129C286.112 18.8766 270.524 17.6539 255.939 16.0955C251.182 15.6115 246.528 15.1382 242 14.6776C211.412 11.5666 186.483 9.03117 173.293 7.66481C171.225 7.45053 169.577 7.15988 169.613 7.01593C169.65 6.87231 171.356 6.92952 173.423 7.14354C186.52 8.50029 211.261 11.0169 241.734 14.1163C246.362 14.5869 251.121 15.071 255.993 15.5665C270.529 17.1198 286.077 18.3381 302.129 21.4712C310.056 23.3249 315.561 23.9619 325.903 30.0251C328.732 31.8356 331.851 34.3074 334.792 37.8863C337.629 41.313 340.29 45.8901 341.968 51.5649Z" fill="black"/>
<mask id="mask0_30_524" style="mask-type:alpha" maskUnits="userSpaceOnUse" x="5" y="2" width="337" height="468">
<rect x="44.7004" y="-2.99366" width="304.124" height="450.184" rx="46" transform="rotate(5.79365 44.7004 -2.99366)" fill="#D9D9D9"/>
</mask>
<g mask="url(#mask0_30_524)">
<path d="M207.805 161.064C207.795 160.849 207.349 160.43 207.506 160.023C198.115 162.161 188.362 161.043 178.801 161.187C166.852 161.371 154.86 162.496 142.942 160.716C142.036 168.382 143.847 174.107 148.806 179.833C151.079 182.459 157.876 187.414 155.354 191.455C152.35 196.273 142.541 192.34 139.273 195.848C136.612 198.704 138.996 204.898 133.224 205.206C134.678 207.176 135.744 209.031 134.966 211.604C134.537 213.029 132.935 213.027 132.772 213.49C132.101 215.365 133.666 216.957 132.313 219.986C130.09 224.96 124.362 226.177 119.433 225.086C114.414 223.973 105.733 215.837 101.903 216.587C98.7394 217.207 101.626 227.251 99.8581 228.411C98.3213 229.422 97.4043 227.957 97.1818 226.518C96.7974 224.028 96.7984 217.86 97.8999 215.69C101.657 208.272 113.902 219.543 118.372 221.204C121.484 222.36 125.488 223.249 128.06 220.565C130.933 217.561 128.745 216.027 129.262 213.536C129.631 211.754 131.933 210.588 131.974 210.105C132.167 207.843 126.23 204.923 130.311 202.725C130.925 202.393 133.756 201.815 133.932 201.583C134.214 201.214 134.163 199.261 134.425 198.378C135.329 195.355 136.66 192.621 139.819 191.577C143.175 190.473 146.967 191.361 150.252 190.535C151.251 190.283 152.554 190.27 152.346 189.009C152.089 187.438 144.89 180.37 143.389 178.061C140.001 172.844 139.565 166.474 139.774 160.39L130.302 159.027C131.886 165.401 126.281 173.862 119.305 171.504C117.647 170.942 117.231 168.771 116.681 168.578C116.295 168.442 111.384 169.063 110.251 169.06C108.745 169.053 106.435 168.367 105.183 168.546C104.968 168.577 102.758 171.206 102.189 171.683C93.941 178.584 74.2694 187.208 67.9861 173.762C65.7839 169.052 65.9806 163.402 67.9532 158.648C68.2771 157.864 69.7894 155.989 69.7311 155.537C69.6682 155.052 68.0702 154.258 67.5319 153.68C66.5535 152.623 66.5059 151.552 65.854 150.673C65.1499 149.716 63.5752 148.731 62.7812 147.713C58.7785 142.547 58.3027 133.062 62.7561 128.061C63.425 127.312 65.3313 126.33 65.4248 126.199C65.9095 125.528 66.6563 121.366 67.3564 119.836C69.7977 114.49 71.8962 114.655 76.392 112.592C80.0475 110.914 83.7506 108.413 87.9592 108.47C89.4635 108.49 91.1953 109.188 92.2412 109.186C92.9023 109.185 95.4394 108.146 96.6264 107.937C100.122 107.318 103.262 107.286 106.782 108.009C109.114 108.487 112.547 109.745 114.948 110.452C121.374 112.339 128.19 114.379 129.973 121.871C130.263 123.088 130.254 126.33 130.551 126.88C131.007 127.719 134.059 128.077 134.571 130.885C134.903 132.705 133.829 133.932 133.996 134.979C134.077 135.483 135.438 136.953 135.8 138.277C136.531 140.943 136.547 144.695 134.36 146.67C133.451 147.491 131.188 147.769 131.077 147.91C130.437 148.731 130.746 154.416 131.176 155.031C131.484 155.473 139.769 157.126 140.133 156.817L141.974 146.763C147.016 115.826 128.971 97.4401 98.2635 98.7509C53.2037 100.678 47.2515 142.403 58.4404 178.294C61.3173 187.528 68.0563 193.68 63.1232 204.238C62.5553 205.452 56.9829 213.9 55.5956 212.214C55.2534 211.797 60.0309 206.089 60.6632 204.793C65.9123 194.042 58.8646 188.643 55.9487 179.241C48.2906 154.549 46.5742 119.268 71.6414 104.058C92.4529 91.425 128.618 92.5915 141.123 116.379C147.865 129.208 145.408 143.441 143.305 157.135C149.338 157.413 155.385 158.071 161.428 158.165C172.903 158.347 186.41 158.213 197.874 157.79C199.567 157.729 206.379 157.317 207.464 156.607C208.374 156.011 207.688 154.481 207.763 153.43C210.296 118.516 234.846 104.452 267.645 113.12C314.229 125.436 315.435 166.057 294.171 202.893C288.484 212.746 279.032 216.592 285.02 229.984C285.406 230.848 288.129 234.923 287.601 235.352C286.268 236.44 282.554 229.379 282.157 228.313C277.11 214.763 287.163 210.21 292.582 200.039C303.707 179.148 312.779 148.13 293.091 129.517C273.469 110.963 229.384 104.192 215.67 133.106C212.352 140.101 211.342 147.451 210.815 155.128C211.23 155.657 213.691 154.031 214.176 153.67C219.133 149.944 221.556 141.151 225.256 135.95C244.297 109.178 294.585 126.043 295.372 158.323C296.316 197.11 231.789 197.002 229.574 160.753C228.698 146.407 240.088 131.905 254.986 132.234C274.009 132.651 289.685 147.807 281.791 167.484C273.898 187.162 234.974 181.011 240.625 153.979C244.804 133.997 278.384 140.024 274.192 161.715C272.186 172.091 259.647 174.654 251.722 169.262C241.761 162.489 250.534 148.349 260.824 152.669C270.426 156.701 261.353 171.664 254.643 163.212C252.771 160.858 253.353 156.538 256.446 157.323C259.25 158.034 254.576 159.214 256.025 161.357C260.473 167.937 265.679 156.819 260.216 154.997C250.23 151.666 244.494 166.066 256.992 168.96C276.567 173.489 276.995 145.143 256.108 144.826C240.532 144.59 238.601 167.255 251.682 173.676C262.069 178.779 275.779 177.035 279.451 164.611C283.123 152.187 277.66 143.375 266.681 138.378C236.364 124.586 218.547 168.158 248.129 181.336C269.497 190.856 298.541 177.433 290.238 150.845C283.495 129.251 252.672 120.015 233.964 131.348C227.254 135.412 224.209 146.7 219.631 152.775C217.108 156.124 214.614 157.726 210.832 159.427C210.853 167.703 209.412 177.287 203.345 183.351C199.582 187.11 194.407 189.072 190.94 193.159C195.394 197.071 203.526 194.911 206.768 200.62C208.488 203.647 207.474 207.874 207.951 208.78C208.513 209.843 214.2 210.372 212.279 213.621C211.757 214.506 208.063 216.485 208.125 217.377C208.164 217.94 209.921 219.141 210.096 220.534C210.491 223.709 207.822 224.545 209.816 228.071C214.677 236.665 229.539 226.6 236.252 226.573C241.053 226.553 243.488 228.892 242.899 233.822C242.748 235.079 241.48 240.314 240.953 241.319C239.84 243.447 237.239 242.668 237.439 240.536C237.509 239.811 238.198 239.019 238.4 238.175C238.928 235.971 240.603 230.833 237.77 229.966C233.92 228.791 223.859 234.651 218.513 234.74C211.723 234.856 204.169 231.172 205.921 223.266C206.076 222.565 206.874 221.89 206.833 221.386C206.723 220.059 203.104 218.807 205.447 215.065C206.131 213.967 207.603 213.634 207.807 212.379C202.025 210.81 205.727 205.794 203.803 202.327C201.571 198.306 192.717 199.689 188.845 195.96C183.378 190.697 194.891 186.047 198.116 183.634C202.577 180.299 206.508 173.853 207.078 168.233C207.29 166.146 207.906 162.993 207.805 161.064ZM108.729 110.976C107.314 110.071 95.6674 109.018 95.5509 110.64C97.1968 112.067 98.8555 113.487 100.08 115.321C101.095 116.841 101.56 118.578 102.601 120.007C102.661 115.66 105.197 112.979 108.729 110.976ZM81.7218 112.654C85.2904 114.4 86.7455 113.996 88.7374 110.553L85.3684 111.104L81.7218 112.654ZM119.251 125.721C121.268 121.869 116.559 114.196 113.03 113.086C108.787 111.75 104.141 117.262 104.862 121.448C110.028 121.622 114.456 124.261 119.251 125.725L119.251 125.721ZM127.731 127.664C129.214 125.959 127.737 121.017 126.478 119.251C124.837 116.944 120.485 114.192 117.647 113.892C117.656 114.517 118.488 114.606 118.936 115.202C120.354 117.101 122.032 120.981 121.914 123.363C121.858 124.505 120.94 126.919 121.25 127.537C121.487 128.008 124.587 129.944 125.147 130.746C125.257 129.151 127.069 128.426 127.731 127.664ZM100.461 121.396C99.9161 118.274 98.0975 115.43 95.6172 113.5C91.8447 110.566 90.8716 111.985 87.8876 115.098C88.8344 116.072 90.0552 116.674 91.0191 117.637C91.983 118.6 93.3113 121.105 94.1896 121.609C96.1613 122.746 98.3995 121.613 100.461 121.396ZM74.292 124.129C76.0926 123.044 77.7455 122.31 79.7325 121.639C80.6203 121.339 82.4694 121.277 82.8752 121.028C83.3703 120.728 84.5809 116.457 84.405 116.137C83.8754 115.158 79.6378 114.716 78.4939 114.737C75.271 114.796 69.5631 121.5 68.5292 124.426C68.315 125.036 68.3908 125.039 68.9779 124.978C70.6007 124.817 71.7958 125.159 73.0596 125.062C73.9639 124.993 73.9211 124.349 74.2924 124.125L74.292 124.129ZM90.4667 121.187C91.2129 120.663 86.9992 116.787 86.4726 117.16L85.7083 120.704L90.4667 121.187ZM91.8503 123.343L85.9024 122.74C85.593 123.421 86.3084 126.793 86.8869 126.856C88.2342 125.817 89.8378 125.095 91.2581 124.205C91.6175 123.98 91.9746 124.289 91.8503 123.343ZM116.309 127.036L112.47 125.435L112.268 127.427C112.395 127.589 116.071 128.006 116.309 127.036ZM94.6956 130.875C96.0075 130.896 100.429 126.684 99.8508 125.748C99.0581 125.072 95.6542 123.717 94.9658 124.5C94.7571 124.741 95.213 129.922 94.6916 130.875L94.6956 130.875ZM83.4031 123.327C82.6092 122.623 76.4646 124.945 76.4063 125.599C77.4194 126.551 78.7738 126.982 79.9092 127.834C81.3983 128.951 81.19 130.688 83.7016 129.663C84.249 129.441 84.861 129.173 84.9191 128.483C84.9422 128.216 83.6014 123.504 83.3995 123.323L83.4031 123.327ZM92.8339 125.455C92.096 125.738 87.8348 128.095 87.7344 128.374C87.3596 129.423 91.2118 132.123 92.0876 131.033C92.7706 130.185 92.4745 126.706 92.8335 125.459L92.8339 125.455ZM132.524 133.1C133.659 132.1 131.005 128.33 129.73 129.211C129.596 129.306 128.906 131.803 128.603 132.3C129.348 132.025 132.374 133.233 132.524 133.1ZM97.0176 138.668C97.2681 138.528 99.3474 135.053 100.391 134.081C101.303 133.232 104.881 131.209 105.05 130.851C106.088 128.631 102.931 126.343 101.889 126.945C101.65 127.082 99.5053 130.418 98.4594 131.249C97.1741 132.27 93.8246 133.181 93.4289 133.568C93.0331 133.954 91.9632 136.642 91.2736 137.635C90.0861 139.349 88.5499 140.867 87.1225 142.38C87.4567 143.074 88.0125 142.334 88.3525 142.103C90.3086 140.788 91.4106 140.075 93.7024 139.281C94.6323 138.961 96.7588 138.811 97.022 138.664L97.0176 138.668ZM71.4582 126.908L68.2637 127.002C67.8334 127.413 68.5636 130.562 69.2336 131.105L71.4582 126.908ZM115.037 134.287C115.85 135.118 116.36 137.826 117.409 138.029C119.35 138.403 121.07 136.219 122.303 135.085C120.041 132.859 117.357 131.162 114.067 131.215C110.776 131.267 114.077 133.321 115.036 134.291L115.037 134.287ZM79.8188 131.37C79.9634 129.392 75.492 127.305 74.0617 127.623C73.1682 127.822 70.0561 132.592 72.1196 133.852C75.6053 135.98 76.6464 132.195 79.8188 131.37ZM130.776 134.536L127.211 134.174L127.324 137.003C127.964 137.768 131.221 135 130.776 134.536ZM81.7818 143.649C85.041 142.205 90.6862 134.895 87.5995 131.757C87.0655 131.216 85.8898 130.444 85.1582 130.785C84.616 131.036 82.6694 134.822 82.3772 135.649C81.4302 138.31 81.0406 140.886 81.7818 143.649ZM66.0996 148.094C67.5238 144.758 65.7585 141.428 65.3252 137.959C64.9532 134.992 64.9227 132.055 65.033 129.073C59.6429 134.067 60.989 143.463 66.1 148.09L66.0996 148.094ZM131.194 146.248C136.169 145.695 134.965 138.965 132.398 136.318C131.86 136.956 129.307 138.504 129.155 139.056C129.003 139.608 132.054 144.762 131.194 146.248ZM105.552 134.391C104.917 133.578 100.577 137.303 100.415 138.156C100.134 139.624 102.618 138.665 103.346 138.167C103.983 137.733 106.091 135.078 105.552 134.391ZM76.6426 135.076C78.4458 135.347 80.0308 134.019 80.1337 132.215C79.6517 132.504 76.0581 134.401 76.6426 135.076ZM67.8629 142.639C69.5656 142.007 68.334 139.774 68.331 138.421C68.328 137.069 68.633 135.8 68.6787 134.481L66.9711 131.688C66.508 135.383 67.3764 139.025 67.8629 142.639ZM114.218 139.713C114.114 139.554 111.308 138.545 110.784 138.145C110.548 139.993 112.58 140.778 114.106 140.893C114.096 140.558 114.308 139.851 114.218 139.717L114.218 139.713ZM80.5591 135.879C78.1411 137.916 75.4601 135.99 73.373 138.003C69.4657 141.768 71.8923 145.845 76.9539 145.55C77.5342 145.516 80.0689 144.658 80.3365 144.311C80.7094 143.834 79.9856 142.163 80.0131 141.26C80.0617 139.479 80.478 137.666 80.5587 135.883L80.5591 135.879ZM128.811 146.002C129.125 144.05 128.079 142.238 127.159 140.612C124.436 142.73 125.895 145.244 128.811 146.002ZM72.9074 136.314L70.573 135.671L70.6466 138.894L72.9074 136.314ZM123.663 141.46C123.527 141.301 119.73 142.325 119.553 142.443C117.799 143.626 119.6 145.181 121.808 143.875C122.225 143.628 123.947 141.787 123.66 141.456L123.663 141.46ZM95.6639 141.034C93.179 139.86 83.1754 147.642 84.429 149.145C87.9297 149.862 89.8457 149.417 92.6254 147.369C95.4051 145.321 95.6107 144.638 95.6639 141.034ZM101.637 142.569C97.966 145.114 102.738 152.407 105.451 146.992C106.386 145.123 103.49 141.284 101.637 142.569ZM107.986 149.926C109.201 150.145 109.455 148.63 110.187 147.936C111.14 147.034 112.274 146.32 113.237 145.428L110.092 142.904C108.058 145.104 107.939 147.068 107.982 149.921L107.986 149.926ZM124.544 150.233C125.771 151.525 127.058 153.764 127.819 151.238C128.539 148.844 124.022 146.45 121.952 146.518C121.399 146.916 124.15 149.815 124.544 150.233ZM70.1085 144.078C69.6924 143.718 68.8925 144.337 68.8239 144.934C68.7989 145.181 70.2133 149.522 70.4101 149.674C71.2972 150.368 76.2997 148.996 76.8871 148.38C77.9366 147.275 75.7565 147.915 75.1502 147.849C73.5728 147.681 71.8137 146.738 70.7379 145.575C70.2147 145.007 70.1707 144.137 70.1081 144.082L70.1085 144.078ZM96.2029 147.527C95.6981 147.053 93.0767 148.884 92.7926 149.591C94.8014 149.968 96.9733 150.12 96.2029 147.527ZM115.952 150.336C115.63 149.884 110.099 153.267 109.961 153.949C109.204 157.743 115.356 160.601 118.337 158.416C117.138 155.908 115.531 153.263 115.952 150.336ZM123.834 155.57L117.538 150.5C117.872 154.474 119.435 160.628 123.834 155.57ZM77.919 150.094C79.3992 150.035 82.466 150.133 82.1422 147.915C82.0427 147.237 81.7122 147.336 81.1754 147.612C80.1941 148.124 78.6745 149.241 77.915 150.094L77.919 150.094ZM92.9862 151.631C91.8309 151.606 89.7335 150.878 88.9449 152.018C90.4433 152.411 91.9719 153.415 92.9862 151.631ZM93.6231 154.199C92.5512 154.931 92.1737 160.349 94.2677 160.598C96.3617 160.847 102.193 156.283 103.503 154.501C103.548 154.026 100.534 152.852 99.9296 152.847C99.6092 152.846 93.8899 154.016 93.6231 154.199ZM80.5326 151.973C80.3372 151.688 74.5715 153.316 74.2658 154.552C75.0841 154.66 80.0553 154.15 80.2989 153.921C80.5424 153.692 80.3992 152.458 80.5362 151.977L80.5326 151.973ZM91.5541 153.9C90.2107 153.993 88.6569 152.685 87.4869 152.687C86.3169 152.689 83.8418 154.735 82.3305 154.626C81.8696 156.129 82.2168 157.918 83.0627 159.215C85.3137 162.655 88.0247 161.481 91.5837 161.545C91.2726 158.926 90.045 156.455 91.5537 153.904L91.5541 153.9ZM118.779 165.91C121.506 166.271 129.515 161.136 127.617 158.123C126.455 156.274 123.598 157.775 122.868 159.085C122.29 160.125 126.045 160.273 125.625 161.574C125.27 162.661 123.666 161.412 122.829 161.681C122.134 161.904 118.433 165.569 118.779 165.91ZM95.4646 162.739C96.9425 163.058 97.9137 164.581 99.453 164.77C101.301 164.994 105.969 163.403 106.714 161.591C107.309 160.146 106.963 155.069 104.982 155.838C104.44 156.049 102.047 158.747 101.01 159.491C99.2305 160.763 97.0973 161.336 95.4681 162.744L95.4646 162.739ZM81.667 160.535L80.1678 155.727C79.4323 155.829 75.944 156.095 75.685 156.318C75.0363 156.868 75.8483 157.039 76.0925 157.277C76.7346 157.897 81.2071 160.842 81.6666 160.539L81.667 160.535ZM121.326 160.543C118.669 160.124 116.948 161.531 113.852 161.004C111.911 160.674 111.09 159.802 109.475 158.938C109.415 161.785 108.011 164.286 106.685 166.699C107.189 167.257 115.39 167.095 116.495 166.463C117.244 166.032 117.588 164.264 118.309 163.319C119.136 162.232 120.543 161.674 121.326 160.547L121.326 160.543ZM102.553 167.893C98.5252 166.293 94.7594 166.966 90.5928 165.822C87.8295 165.063 83.4416 163.338 80.6873 162.254C77.1819 160.872 75.0422 158.784 72.2829 156.367C65.9956 163.254 67.8062 177.47 78.4282 178.636C85.746 179.439 97.7273 173.367 102.553 167.893ZM119.326 169.482C121.848 172.068 129.318 166.553 128.299 162.856L124.508 166.02C123.49 166.617 122.405 167.046 121.3 167.441C120.194 167.836 117.733 167.844 119.326 169.478L119.326 169.482ZM94.4695 164.65C93.5237 162.088 92.2298 163.389 90.1916 163.42L94.4695 164.65Z" fill="black"/>
</g>
<path d="M121.278 309.003C127.564 310.536 135.364 312.355 141.575 313.901C141.662 313.923 141.749 313.945 141.836 313.966C144.375 314.598 146.96 315.249 150.087 316.037C150.486 316.137 150.894 316.24 151.311 316.345C155.018 317.279 159.573 318.424 165.781 319.975C186.629 325.183 203.12 329.069 208.25 330.277C218.538 332.701 229.496 335.353 244.449 338.971C245.817 339.301 247.218 339.641 248.655 339.988C249.819 340.27 250.77 340.554 250.781 340.624C250.792 340.694 249.858 340.523 248.693 340.241C247.286 339.9 245.915 339.569 244.579 339.245C244.573 339.244 244.567 339.243 244.561 339.241C229.514 335.6 218.794 333.006 208.748 330.64C203.507 329.405 186.611 325.424 165.248 320.087C158.974 318.52 154.368 317.361 150.638 316.422C150.23 316.319 149.832 316.219 149.445 316.122C149.436 316.119 149.427 316.117 149.418 316.115C146.27 315.322 143.794 314.698 141.364 314.094C141.313 314.081 141.261 314.068 141.209 314.055C134.928 312.491 127.276 310.709 121.18 309.223C120.016 308.939 119.094 308.66 119.121 308.599C119.149 308.539 120.115 308.72 121.278 309.003ZM152.471 459.721C146.248 459.177 137.981 458.328 130.685 457.549C123.338 456.765 116.693 456.02 113.566 455.66C110.509 455.308 107.11 454.949 103.053 454.529C102.123 454.433 101.158 454.333 100.16 454.23C96.8637 453.89 93.1959 453.512 89.1711 453.085C83.1048 452.441 77.904 451.896 73.4041 451.429C66.9164 450.758 61.9231 450.245 57.8633 449.793C56.4525 449.636 55.1291 449.484 53.913 449.34C53.9109 449.339 53.9088 449.339 53.9067 449.339C49.2636 448.786 45.8163 448.299 42.6884 447.74C37.102 446.712 32.5654 445.7 27.5122 443.564C25.1383 442.542 22.5368 441.152 20.1406 439.311C15.4346 435.772 11.3836 430.918 9.00895 426.969C8.80753 426.642 8.60558 426.303 8.40624 425.959C7.94408 425.159 7.48723 424.312 7.0392 423.403C5.02396 419.369 3.57543 413.878 3.35909 406.072C3.15617 398.167 3.82045 391.19 4.35334 385.065C4.51599 383.289 4.67826 381.617 4.83693 380.014C5.2411 375.941 5.62336 372.29 5.96546 368.86C5.96912 368.823 5.97278 368.787 5.97644 368.75C8.03929 347.519 9.62579 335.313 11.4507 327.868C12.8209 322.136 14.1027 319.11 15.0759 317.002C15.378 316.358 15.6525 315.815 15.9283 315.291C17.0738 313.121 18.3773 311.161 19.9267 309.349C21.6899 307.29 23.6719 305.33 26.055 303.437C27.0566 302.643 28.1333 301.861 29.2958 301.102C32.7936 298.83 35.7502 297.52 38.1521 296.6C38.4222 296.497 38.6861 296.401 38.9443 296.311C40.0463 295.927 41.0379 295.649 41.9842 295.424C42.0016 295.42 42.019 295.416 42.0364 295.411C42.1681 295.38 42.2992 295.351 42.4299 295.322C42.5284 295.3 42.627 295.278 42.7262 295.257C42.765 295.248 42.7999 295.24 42.826 295.234C42.8466 295.23 42.8627 295.226 42.873 295.224C42.875 295.223 42.8769 295.223 42.8789 295.222C43.0657 295.181 43.2256 295.149 43.2589 295.143C43.3165 295.131 43.3678 295.122 43.394 295.117C43.5323 295.091 43.7117 295.059 43.8314 295.039C44.1433 294.986 44.6658 294.898 45.5063 294.797C46.2238 294.709 46.9289 294.638 47.8066 294.578C47.8623 294.574 47.9181 294.57 47.974 294.566C48.8312 294.512 49.8344 294.471 51.1154 294.475C52.2632 294.479 53.3355 294.581 53.4857 294.653C53.6333 294.727 52.8311 294.736 51.6676 294.719C50.4776 294.703 49.5334 294.727 48.6753 294.767C48.6213 294.77 48.5673 294.773 48.5135 294.776C47.62 294.822 46.7806 294.89 45.8796 294.992C45.5819 295.026 45.2685 295.065 44.9796 295.105C44.4619 295.177 43.8705 295.272 43.1758 295.41C43.0371 295.438 42.8925 295.467 42.7447 295.499C41.8005 295.7 40.7145 295.975 39.5168 296.369C39.1031 296.505 38.6756 296.655 38.2354 296.822C35.6512 297.809 32.5352 299.222 28.9706 301.603C27.8761 302.338 26.8484 303.1 25.8775 303.885C23.704 305.644 21.8118 307.513 20.1105 309.503C18.3445 311.568 16.8842 313.859 15.6429 316.394C15.308 317.078 15.0087 317.731 14.7011 318.451C13.8133 320.576 12.7951 323.172 11.5532 328.476C9.85762 335.558 8.27535 347.501 6.22204 368.672C6.21865 368.706 6.21525 368.74 6.21184 368.774C5.85499 372.348 5.45058 376.212 5.04512 380.311C4.89085 381.873 4.7341 383.501 4.58233 385.161C4.05544 391.192 3.42783 397.93 3.5828 405.562C3.76317 413.674 5.21389 419.2 7.25739 423.298C7.55838 423.909 7.86428 424.493 8.1744 425.056C8.25841 425.208 8.34329 425.36 8.42906 425.511C8.5355 425.699 8.64268 425.885 8.75011 426.068C11.1471 430.245 15.295 435.369 20.2836 439.123C22.9176 441.147 25.8404 442.645 28.5517 443.734C33.4117 445.654 37.7566 446.611 43.2882 447.604C46.0165 448.079 48.9678 448.506 53.4998 449.052C54.7771 449.205 56.182 449.368 57.7334 449.54C61.8514 450 66.8927 450.518 73.4279 451.194C78.0091 451.669 83.3023 452.223 89.4752 452.879C93.3731 453.292 96.8814 453.654 100.159 453.992C101.177 454.098 102.177 454.201 103.155 454.302C107.231 454.724 111.025 455.123 114.558 455.53C117.462 455.864 123.893 456.586 131.039 457.349C138.236 458.117 145.881 458.898 151.351 459.377C151.92 459.427 152.494 459.477 153.067 459.527C158.002 459.96 163.033 460.401 167.09 460.697C184.571 461.773 215.52 465.14 237.131 467.391C238.043 467.486 238.903 467.575 239.775 467.665C240.06 467.695 240.337 467.723 240.623 467.753C253.351 468.992 264.488 470.409 272.366 468.338C280.063 466.344 284.901 462.999 287.258 461.299C287.484 461.133 287.688 460.98 287.871 460.842C288.034 460.718 288.18 460.605 288.309 460.504C290.236 458.995 291.822 457.51 293.364 455.847C293.448 455.756 293.532 455.665 293.615 455.573C295.223 453.796 296.785 451.814 298.367 449.297C299.207 447.957 299.951 446.607 300.607 445.258C304.293 437.222 304.656 429.136 305.549 422.356C305.713 420.871 305.866 419.43 306.011 418.022C306.012 418.018 306.012 418.014 306.013 418.01C306.28 415.422 306.527 412.944 306.766 410.564C307.098 407.246 307.411 404.146 307.696 401.112C308.602 391.628 308.822 385.261 307.951 380.585C307.867 380.113 307.774 379.656 307.673 379.214C307.456 378.257 307.217 377.358 306.962 376.499C306.145 373.769 305.195 371.459 304.04 369.169C301.854 364.866 299.152 361.271 296.065 358.182C295.789 357.906 295.511 357.635 295.228 357.368C293.115 355.37 290.816 353.593 288.316 352.036C286.777 351.077 285.12 350.253 283.352 349.518C282.291 349.077 281.402 348.701 281.399 348.63C281.401 348.562 282.294 348.824 283.363 349.267C285.165 350.011 286.86 350.85 288.441 351.835C290.83 353.323 293.056 355.021 295.138 356.958C295.426 357.226 295.711 357.499 295.993 357.776C299.114 360.849 301.915 364.504 304.17 368.903C305.297 371.119 306.22 373.305 307.054 375.986C307.357 376.967 307.644 378.016 307.905 379.162C307.983 379.505 308.057 379.86 308.126 380.223C309.07 384.995 308.854 391.469 307.939 401.048C307.654 404.1 307.338 407.227 307.001 410.588C306.77 412.889 306.531 415.29 306.271 417.811C306.126 419.221 305.971 420.688 305.806 422.187C304.905 429.014 304.567 437.172 300.82 445.362C300.169 446.7 299.432 448.039 298.602 449.369C297.102 451.761 295.632 453.666 294.038 455.458C293.948 455.558 293.858 455.658 293.767 455.758C292.245 457.428 290.577 459.022 288.533 460.629C288.26 460.843 287.909 461.114 287.479 461.43C285.104 463.151 280.216 466.548 272.425 468.567C264.447 470.657 253.28 469.219 240.526 467.98C240.448 467.972 240.372 467.964 240.295 467.957C239.208 467.845 238.152 467.735 237.107 467.627C222.257 466.091 213.53 465.192 206.845 464.569C201.203 464.042 196.988 463.627 193.529 463.281C192.87 463.216 192.246 463.153 191.651 463.094C189.08 462.836 187.049 462.633 185.017 462.443C178.871 461.87 174.459 461.504 169.115 461.114C164.585 460.783 159.044 460.297 154.19 459.872C154.182 459.871 154.175 459.87 154.168 459.87C153.592 459.819 153.025 459.77 152.471 459.721ZM67.9493 296.295C69.1305 296.519 70.0398 296.756 70.0227 296.819C69.9911 296.88 69.0449 296.743 67.8626 296.519C65.0788 295.992 62.288 295.522 59.5006 295.164C58.3296 295.014 57.3963 294.865 57.417 294.801C57.431 294.738 58.4 294.784 59.5728 294.935C62.3669 295.295 65.1622 295.767 67.9493 296.295ZM157.324 461.396C156.16 461.291 155.006 461.132 154.748 461.042C154.491 460.952 155.228 460.964 156.391 461.068C157.006 461.124 158.018 461.214 159.378 461.334C169.18 462.205 197.169 464.692 226.814 467.597C229.31 467.842 231.547 468.06 233.678 468.268C234.808 468.379 235.911 468.484 237.009 468.588C244.766 469.09 252.335 470.767 267.502 470.153C269.227 469.99 270.94 469.714 272.609 469.287C285.082 466.161 295.962 457.308 301.557 445.72C306.399 434.89 306.427 422.513 307.91 410.68C308.794 400.084 310.906 389.334 308.887 378.942C306.373 367.438 299.058 357.08 289.049 350.863C279.913 345.48 269.072 343.884 258.79 341.187C245.551 337.99 232.311 334.806 219.069 331.64C198.411 326.7 177.831 321.727 157.173 316.721C139.954 312.55 108.42 304.791 100.996 302.981C99.8317 302.697 98.9098 302.418 98.9371 302.357C98.9649 302.297 99.9304 302.478 101.094 302.761C108.465 304.559 139.895 312.292 157.049 316.448C177.667 321.444 198.206 326.407 218.823 331.337C232.161 334.527 245.505 337.725 258.852 340.931C269.14 343.621 279.965 345.18 289.214 350.601C299.302 356.843 306.696 367.263 309.254 378.86C311.314 389.389 309.206 400.121 308.345 410.724C306.875 422.571 306.902 434.907 302 445.936C296.357 457.663 285.354 466.629 272.739 469.793C271.008 470.236 269.237 470.518 267.455 470.683C252.038 471.266 244.811 469.394 236.984 468.834C236.02 468.737 235.048 468.64 234.05 468.543C231.914 468.334 229.665 468.115 227.145 467.868C197.916 465.004 170.353 462.554 160.433 461.673C159.029 461.548 157.974 461.454 157.324 461.396ZM101.899 455.673C93.824 454.864 83.686 453.828 73.2693 452.757C66.5085 452.06 59.6478 451.366 53.1447 450.565C45.1016 449.575 37.6196 448.379 31.8162 446.63C26.3407 445.003 22.34 442.888 19.2438 440.493C17.2495 438.953 15.5504 437.386 13.9772 435.716C13.9342 435.67 13.8912 435.624 13.8483 435.578C10.976 432.459 8.39075 429.016 5.94221 423.928C5.02833 422.004 4.22493 419.804 3.61976 417.269C1.30348 407.887 2.41808 394.511 3.61131 381.231C3.61228 381.221 3.61325 381.211 3.61423 381.2C4.00152 377.003 4.40931 372.762 4.80057 368.631C5.63736 359.795 6.41456 351.454 7.24876 344.871C9.17751 329.585 11.74 316.347 18.7283 308.346C25.2538 300.691 32.4063 297.085 37.6191 295.175C38.8268 294.738 39.96 294.414 40.9986 294.167C59.4334 290.667 80.0682 298.037 98.3285 302.196C100.356 302.751 96.8841 302.094 93.1619 301.143C93.0311 301.11 92.8922 301.075 92.7563 301.041C91.4542 300.713 90.3638 300.44 88.7638 300.048C86.482 299.496 84.7662 299.091 83.2026 298.727C79.2242 297.854 50.3367 290.502 40.2325 294.609C39.4448 294.818 38.6014 295.077 37.7052 295.405C32.7296 297.255 25.6135 300.795 19.0332 308.601C12.2466 316.441 9.6907 329.574 7.75577 345.031C6.93157 351.548 6.02672 359.805 5.1032 368.662C4.68476 372.673 4.25869 376.811 3.87584 380.946C3.87251 380.982 3.86918 381.018 3.86585 381.054C2.68518 394.225 1.5161 407.722 3.84689 417.201C4.44571 419.714 5.2433 421.905 6.1558 423.826C8.73928 429.19 11.5023 432.757 14.4838 435.902C14.5235 435.943 14.5632 435.984 14.6031 436.025C16.0681 437.536 17.6186 438.937 19.3877 440.303C22.4653 442.681 26.3855 444.766 31.8718 446.4C37.7777 448.179 45.344 449.371 53.4329 450.362C59.876 451.151 66.6285 451.834 73.2932 452.522C83.6444 453.586 93.6994 454.614 101.733 455.418C102.924 455.538 103.927 455.691 103.973 455.762C104.018 455.832 103.089 455.792 101.899 455.673ZM101.476 457.11C92.0255 456.218 82.5638 455.303 73.1058 454.369C54.7775 451.851 34.9756 453.175 18.2255 441.835C12.3053 437.31 7.52257 431.362 4.37982 424.677C3.37185 422.543 2.60419 420.301 2.05603 418.036C-0.483882 408.102 0.790637 394.372 2.04282 380.958C2.05739 380.808 2.07204 380.657 2.08677 380.507C2.4801 376.461 2.89843 372.411 3.30239 368.479C4.22391 359.505 5.09132 351.104 5.93085 344.508C7.87287 329.299 10.3689 315.878 17.6502 307.444C24.3334 299.557 31.698 295.789 37.1034 293.797C38.4756 293.297 39.754 292.937 40.9219 292.67C51.0573 290.844 53.8737 291.95 57.9715 292.163C58.0819 292.175 58.1927 292.187 58.3037 292.199C58.311 292.2 58.3184 292.201 58.3257 292.201C58.4658 292.214 58.5838 292.225 58.6447 292.232C58.7686 292.244 58.8699 292.255 58.9078 292.26C58.9954 292.269 59.0692 292.278 59.0954 292.281C59.2026 292.294 59.3255 292.309 59.4049 292.319C60.1156 292.402 62.4068 292.718 64.1793 293.021C66.0147 293.331 67.3003 293.579 68.6705 293.851C68.8095 293.879 68.9515 293.908 69.0888 293.936C70.3014 294.181 71.6384 294.459 73.5624 294.878C74.7137 295.129 75.5493 295.372 75.389 295.403C75.2258 295.434 74.1539 295.248 72.9943 294.998C70.973 294.562 69.5666 294.274 68.3241 294.027C68.1864 294 68.0492 293.973 67.9124 293.946C66.623 293.694 65.476 293.478 63.8427 293.206C61.4899 292.823 59.7547 292.597 58.1274 292.418C53.908 292.207 50.6371 290.95 40.1154 293.114C39.2118 293.346 38.2315 293.64 37.187 294.021C32.0112 295.934 24.648 299.568 17.8315 307.596C10.6847 315.844 8.11458 329.168 6.16685 344.526C5.3265 351.125 4.45872 359.532 3.53748 368.503C3.13301 372.44 2.71437 376.493 2.3211 380.538C2.30608 380.693 2.29114 380.848 2.27629 381.002C1.02141 394.421 -0.236378 408.119 2.28209 417.966C2.84262 420.223 3.62009 422.447 4.63174 424.556C7.81622 431.222 12.6085 437.081 18.4674 441.516C35.1175 452.673 54.8209 451.327 73.1517 453.917C82.4961 454.879 91.8722 455.855 101.307 456.856C108.228 457.549 114.554 458.187 120.415 458.778C137.663 460.518 150.899 461.853 163.531 462.991C166.301 463.24 173.554 463.949 184.036 464.979C187.108 465.281 190.477 465.613 194.119 465.971C203.046 466.849 213.622 467.89 225.539 469.057C228.036 469.302 230.272 469.52 232.403 469.728C233.92 469.877 235.383 470.019 236.85 470.163C244.241 470.694 251.513 472.286 266.395 471.969C268.49 471.83 270.735 471.544 273.037 470.956C284.52 468.283 297.236 459.017 303.112 446.478C308.151 435.045 308.03 423.483 309.174 415.364C309.345 413.735 309.498 412.264 309.645 410.856C310.367 403.952 310.801 399.64 311.064 396.423C311.153 395.337 311.224 394.396 311.282 393.518C311.429 391.231 311.515 389.452 311.507 387.094C311.489 384.128 311.249 381.27 310.64 378.55C307.845 366.958 302.01 357.221 289.955 349.415C288.986 348.812 287.964 348.25 286.896 347.731C285.782 347.187 284.818 346.734 284.753 346.635C284.693 346.542 285.573 346.837 286.695 347.371C287.877 347.933 289.013 348.549 290.081 349.213C302.09 356.979 308.051 366.767 310.871 378.498C311.493 381.274 311.731 384.189 311.744 387.2C311.749 389.667 311.648 391.588 311.493 393.907C311.434 394.772 311.364 395.685 311.278 396.712C311.017 399.861 310.59 404.096 309.88 410.88C309.73 412.315 309.575 413.816 309.399 415.487C308.254 423.59 308.385 435.094 303.325 446.581C297.417 459.189 284.626 468.502 273.096 471.185C270.795 471.773 268.554 472.061 266.465 472.202C251.421 472.527 244.293 470.933 236.826 470.399C235.494 470.268 234.158 470.138 232.775 470.003C230.64 469.795 228.392 469.575 225.873 469.329C213.94 468.159 203.335 467.116 194.403 466.237C190.766 465.88 187.405 465.549 184.345 465.248C173.652 464.197 166.837 463.532 164.464 463.318C151.389 462.141 137.577 460.748 120.17 458.991C114.373 458.406 108.176 457.781 101.476 457.11ZM220.285 330.064C221.447 330.342 222.443 330.635 222.51 330.718C222.577 330.801 221.689 330.644 220.527 330.366C214.387 328.897 209.973 327.844 206.522 327.02C200.135 325.496 197.049 324.759 192.43 323.639C180.506 320.748 168.993 317.958 158.634 315.448C141.416 311.276 127.383 307.876 119.96 306.067C118.796 305.783 117.874 305.503 117.901 305.443C117.929 305.383 118.895 305.564 120.058 305.847C127.429 307.644 141.356 311.019 158.51 315.175C168.881 317.688 180.432 320.486 192.431 323.396C196.91 324.482 199.825 325.178 206.07 326.668C209.517 327.491 213.981 328.556 220.285 330.064Z" fill="black"/>
</svg>
