<svg width="749" height="883" viewBox="0 0 749 883" fill="none" xmlns="http://www.w3.org/2000/svg">
<rect x="0.5" y="0.5" width="748" height="882" rx="38.5" fill="black" fill-opacity="0.01"/>
<rect x="0.5" y="0.5" width="748" height="882" rx="38.5" stroke="black"/>
<path d="M13 346V250C13 300.166 48.4704 304.949 61.3687 304.949H369.475C388.583 304.949 398.137 304.949 405.819 307.631C419.635 312.454 430.496 323.315 435.318 337.13C438 344.813 438 354.367 438 373.475C438 392.583 438 402.137 435.318 409.819C430.496 423.635 419.635 434.496 405.819 439.318C398.137 442 388.583 442 369.475 442H109C63.7452 442 41.1177 442 27.0589 427.941C13 413.882 13 391.255 13 346Z" stroke="black"/>
<path d="M13 55V52C13 77.8667 31.2777 80.3333 37.9241 80.3333H196.667C216.181 80.3333 232 96.1526 232 115.667C232 135.181 216.181 151 196.667 151H109C63.7452 151 41.1177 151 27.0589 136.941C13 122.882 13 100.255 13 55Z" stroke="black"/>
<path d="M734 445V442C734 467.867 705.707 470.333 695.419 470.333H430.333C410.819 470.333 395 486.153 395 505.667C395 525.181 410.819 541 430.333 541H638C683.255 541 705.882 541 719.941 526.941C734 512.882 734 490.255 734 445Z" stroke="black"/>
<path d="M734 154V151C734 176.867 715.722 179.333 709.076 179.333H550.333C530.819 179.333 515 195.153 515 214.667C515 234.181 530.819 250 550.333 250H638C683.255 250 705.882 250 719.941 235.941C734 221.882 734 199.255 734 154Z" stroke="black"/>
</svg>
