<?xml version="1.0" encoding="UTF-8"?>
<svg id="_图层_2" data-name="图层 2" xmlns="http://www.w3.org/2000/svg" viewBox="0 0 640 370.3">
  <g id="_图层_1-2" data-name="图层 1">
    <path d="M0,366.3c14.5-20.09,27.21-41.55,42.18-61.32,5.33-7.04,15.53-22.3,24.38-23.63,19.83-2.97,52,46.65,62.43,7.44l-12.49,3.59c-9.74.25-38.58-11.31-47.71-16.37-10.4-5.77-7.24-14.32-3.55-23.97,4.03-10.55,12.48-15.98,13.63-27.37,1.94-19.28-5.99-40.98-5.86-59.86.1-14.18,16-21.07,26.97-27.03,10.77-5.85,32.18-19.75,41.01-6.48.07-4.65,2.46-9.74,4.82-13.69,6.6-11.07,28.53-24.8,40.98-28.02,16.52-4.27,25.76-.79,38.74,9.69l7.46,8.02c1.09-11.24-3.96-26.27.8-36.7.71-1.56,2.76-2.8,3.04-3.99,1.11-4.63-6.08-11.98,1.9-16.07,55.58-13.62,110.67-29.76,166.45-42.55,10.17-2.33,37.35-10.01,46.11-7.47,1.73.5,4.14,3.48,4.69,5.31,2.31,19.87,9.57,41.25,11.01,60.99.19,2.64.97,16.48-2.48,16.46-2.38-1.78-3.19-4.24-4.02-6.97-4.31-14.33-6.11-56.4-16.56-65.44-5.38-4.66-17.37-2.27-23.96-1.11-18.55,3.28-40.38,10.83-58.73,16.27-33.58,9.95-70.09,20.94-102.75,33.25-3.12,1.17-17.62,6.27-18.38,8.69l76.15,273.06c1.2.97,2.61,1.2,4.11,1.17,7.4-.12,20.02-3.64,27.82-5.21,41.55-8.37,86.36-18.67,127.24-29.76,10.09-2.74,33.75-7.77,38.07-17.93,5.75-13.51-8.83-41.13-11.05-55.95-.3-2-1.51-9.53,1.07-10.06,3.57-.72,12.11,12.2,16.47,13,1.18-1.56-3.76-7.11-4.96-8.53-8.92-10.5-27.81-23.42-33.58-34.42-1.94-3.7-2.5-11.18-6.97-12.03-14.77-.36-30.21.39-43.8-6.2-5.02-2.44-30.73-20.13-33.13-23.87-3.19-4.97-.31-5.66.21-9.69.62-4.76-.3-9.58-2.01-14.03-5.55-2.06-31.55-3.74-33.68-8.82-.25-.6-.51-2.42.51-2.48,7.88-2.14,16.28-.57,24.3-.05,3.18-7.43,5.67-16.97,14.1-19.91-6.29-9.79,11.78-20.28,20.06-19.54,3.86.35,8.59,3.45,12.69,4.32,16.75,3.55,28.71-2.07,41.77,12.23,11.66,12.76,30.08,34.4,39.51,48.49,1.14,1.71,2.71,6.32,3,6.53.18.12,2.24-1.18,4.21-.85,5.93.99,26.17,25.07,32.24,30.87,5.47,5.24,16.83,12.89,20.97,18.03,2.97,3.67,1.67,10.92-.45,14.94,26.27-2.51,45.55,19.95,65,34.01v3c-15.72-11.15-38.15-34.88-58.5-35.09-1.46-.01-7.43.71-8.27,1.32-.78.56-7.77,13.27-10.26,16.24-6.13,7.33-18.86,17.36-28.56,18.45-15.04,1.69-.79-12.5,3.58-16.44,6.3-5.68,15.51-11.97,22.97-16.03,2.75-1.5,8.76-2.77,10.6-4.4,1.61-1.43,3.68-8.38,3.54-10.57-.3-4.85-13.6-13.66-17.62-17.46-4.72-4.47-33.35-35.41-35.86-34.98-4.54,4.78-6.3,11.28-10.2,16.86-5.99,8.55-19.3,22.38-30.4,19.09,3.28,14.46,18.35,22.48,28.04,32.45,2.56,2.63,13.39,14.71,13.81,17.26.19,1.18.31,2.08-.82,2.84-5.34,3.62-17.02-12.9-18.03-11.55.64,12.57,6.41,24.01,9.49,36,2.66,10.35,7.28,24.73-1.59,33.4s-47.05,16.4-61.09,19.91c-34.55,8.65-70.73,17.47-105.63,24.37-6.04,1.2-24.54,5.86-29.18,3.79-.9-.4-1.9-1.69-2.44-2.56L237.51,70.31c-4.26,3.85-3.69,11.12-3.54,16.54.57,21.75,8.37,44.09.22,65.14-4.7,12.14-14.45,28.55-27.4,32.6-7.19,2.24-28.84,5.2-36.27,4.7-13.09-.87-22.74-8.99-28.43-20.35l-1.99-.52-2.08,2.88,2.98,1.51-2.07,4.88c5.65,2.37,1.23,9.43,1.04,15.08-.29,8.8,3.17,16.85,1.96,25.96-1.07,8.05-7.91,17.01-10.92,24.58,5.14.57,10.68-15.82,11.67-16.05,3.75-.88,13.45,4.39,13.44,8.56s-7.14,8.17-10.58,9.52c-20.07,7.88-45.87-6.89-65.89-10.82-6.82,5.24-18.39,27.07-15.11,34.78.35.82,2.15,2.34,2.98,3.01,5.25,4.27,34.15,15.47,41.24,16.75,4.82.87,9.31,1.23,13.97-.52,10.11-3.81,9.12-12.6,12.79-21.2,3.46-8.11,10.2-19.84,19.48-21.53,2.55,1.55-1.76,8.17-2.83,10.18-5.21,9.79-14.44,18.84-19.21,27.79-5.68,10.66-4.23,25.85-22.02,22.09-12.1-2.56-31.18-22.69-42.46-22.59-8.15.07-21.08,18.78-25.87,25.15-15.07,19.98-27.98,41.61-42.61,61.89v-4ZM464.99,80.3c-.54-25.41-6.97-50.56-12.1-75.39-4.32-6.58-21.22.84-27.89.4,1.67,2.66,6.9.03,9.39.09,3.15.08,8.67,1.83,11.12,3.89,10.08,8.48,13.6,50.9,16.98,65.02.39,1.61.68,5.51,2.5,5.98ZM388,15.31l-145.97,36.52-4.92,3.13,1.9,10.35,30.22-12.27,118.77-37.72ZM393,116.29c4.85,2.09,8.85-2.58,13.31-4.18,9.1-3.25,15.4-1.61,23.7,2.67,12.08,6.23,10.93,5.05,24.19,7.81,10.2,2.12,15.51,5.16,23.7,11.3,10.06,7.55,24.56,26.57,37.77,14.93-.61-3.25-2.46-5.8-4.27-8.44-11.91-17.4-30.04-34.1-43.07-50.93-12.37-5.86-26.19-4.23-39.57-7.43-2.21-.53-3.94-2.31-6.34-2.68-7.75-1.18-20.42,5.33-20.43,13.94,3.48.29,5.52-3.09,8.72-3.76,6.09-1.28,8.33,1.28,12.86,1.69,2.99.27,26.64-.21,25.41,5.55-1.66,7.77-21.77-1.82-25.55-2.41-3.5-.54-15.36.18-18.73,1.15-1.18.34-8.79,6.71-9.24,7.82-.94,2.29,2.54,9.52-2.47,12.96ZM174.5,98.3c4.97-.2,10.02,0,15,0,4.25,0,16.59,4.99,20.41,7.59,13.67,9.29,14.98,28.33,11.43,43.25-10.53,44.28-66.61,23.07-69.37-13.3-.84-11.1,2.57-18.83,7.02-28.54-16.04,10.42-19.7,29.08-15.5,47.01,10.74,45.79,77.16,35.06,87.22-4.8,2.16-8.56,4.36-24.17,3.32-32.73-1.4-11.47-17.02-22.61-27.25-25.76-11.26-3.47-25.19,1.8-35.29,7.27-1.26,2.52,2.76.01,3.01,0ZM446,97.29c-3.66-4.2-11.79-3.26-16.99-3.98l8.73,3.75,8.26.23ZM177.79,100.6c-2.92.28-10.53,1.67-12.73,3.27-1.83,1.33-7.33,11.22-8.26,13.74-17.24,46.82,54.01,79.48,62.94,27.94,5.15-29.71-11.85-47.86-41.96-44.95ZM432,119.29c-8.65-8-19.87-8.07-29.99-2.98l9.5,1.98,20.49,1ZM436.8,122.51l-71.8-5.2c1.08,2.24,4.8,2.89,6.99,3.5,4.11,1.13,20.24,4.4,23.73,4.23,3.95-.19,8.02-7.05,12.98,2.28,10.46.31,20.58,3.57,30.85,4.94,1.51.2,1.69.24,1.34-1.35l-4.1-8.4ZM440,123.31l4.5,9.97c2.75-2.34.28-6.42,3.48-8.48-1.89-2.48-5.22-1.31-7.98-1.49ZM463.69,129.62c-2.51-2.22-13.03-5.95-15.2-2.33-.81,1.82-1.29,6.1,1.16,6.86,4.28,1.35,22.67,3.1,14.04-4.53ZM90.01,158.3c-.27-1.75-.06-2.2,1.03-3.46,2.48-2.87,26.35-13.67,31.01-14.99,3.99-1.13,10.1-1.09,12.72-2.28,6.09-2.77,2.34-9.48-3.49-10.05-7.1-.69-29.03,11.53-35.94,15.61-6.15,3.63-18.12,9.29-19.26,16.74-2.73,17.78,6.3,40.17,4.95,58.43,1.75.23.94-2.27.99-3.48.56-13.68-2.17-27.67-1.03-41.05.5-5.92,1.89-9.76,7.48-12.52,4.1-2.02,24.15-8.33,27.3-5.7s-2.1,7.67-1.25,10.75c3.51-4.5,20.52-18.86,20.49-23.54,0-.99-.55-2.09-1.44-2.23-3.43-.52-22.57,7.09-26.56,9.26-5.72,3.12-10.12,9.23-16.98,8.51ZM439,143.31c-13.85,7.26-21.57-8.81-32.36-13.09-3.44,3.57-8.87,12.53-8.39,17.44.3,3.1,12.26,11.15,15.44,13.46,13.96,10.15,28.02,19.24,46.31,17.18l-26.35-8.13c-4.37-1.05-30.28-16.55-19.41-21.19,6.33-2.71,19.89,2.37,24.77-5.65ZM440,134.31l-27-4c6.3,8.02,24.32,21.15,27,4ZM432.5,150.3c-4.13.69-11.39,0-16,0-.27,0-2.07,1.95-2.37,2.64-.62,3.6,12.68,11.26,15.84,12.89,16.73,8.59,29.2,6.78,44,12,3.33,1.17,8.48,5.99,10.66,6.23,9.35,1.04,29.95-22.09,31.35-31.75-7.76,4.99-15.8,1.97-22.9-2.59-6.41-4.11-18.21-17.3-23.6-19.4-2.79-1.08-.78,4.48-1.62,5.85-4.86,3.59-17.29-1.5-20.86.65s-5.86,12.06-14.5,13.49ZM140.99,155.3l-1.48-18.99c-3.96,4.6-2.06,11.19-7.5,15.98l8.99,3.01ZM135.7,158.62c-5.32-4.89-12.81,1.64-10.24,6.69,1,1.96,9.13,4.69,11.53,3.53,3.93-1.96.94-8.17-1.29-10.22ZM114,157.31c-1.69-1.7-21.55,4.47-24.55,5.94-10.21,5.02-5.53,21.78-5.41,30.51.18,12.71,1.07,25.77-2.97,37.91l47.93,13.63c.91-9.5,9.68-18.04,10.91-27.59,1.45-11.2-5.53-24.52-.07-35.95-2.44-3.54-6.38.27-9.46.51-.97.07-6.19-.74-6.39-.99-3.64-4.47,9.49-3.66,11.3-4.18,1.42-.41,3.02-2.13,2.7-3.79l-14.89-2.92c-2.91,7.09-4.04,14.86-7.95,21.58-2.83,4.85-7.03,9.64-9.89,1.57-4.87-13.76,6.51-23.9,8.74-36.23ZM174,185.31c-10.43-.62-19.02-6.15-25.44-14.07l-6.56-11.93c-.89,4.97,1.98,9,4.58,12.9,6.88,10.32,13.9,13.52,26,15.02,1.98.24,1.43-.22,1.41-1.92ZM117.99,166.3c-5.44,5.54-11.45,14.7-5.49,21.98l5.49-21.98ZM219,173.31l-17.99,9.98c6.99-.31,14.08-4.1,17.99-9.98ZM112.99,190.32l-3.89-2.63-2.1-7.39,1,14.99c1.27.93,5.9-3.65,4.98-4.98ZM530.01,247.3c14.07-1,25.32-10.26,33.39-21.1.94-1.27,7.27-10.18,6.6-10.89-11.27,5.06-22.29,11.68-31.46,20.03-1.49,1.36-10.56,10-8.52,11.97ZM134,245.29c4.27,1.07,21.43-5.4,19.95-10.37l-9.35-5.56-10.6,15.93ZM135.01,276.3c3.22-2.24,19.21-26.52,17.98-28-9.41,6.41-15.3,17.02-17.98,28Z"/>
  </g>
</svg>