<svg width="782" height="255" viewBox="0 0 782 255" fill="none" xmlns="http://www.w3.org/2000/svg">
<g clip-path="url(#clip0_25_114)">
<path d="M259.137 65.8952V64.0648L294.725 8.37733H262.284V5.63654H298.617V7.37979L263.029 63.1544H299.033V65.8952H259.127H259.137Z" fill="black"/>
<path d="M312.229 65.8952V0H315.22V29.2964C317.544 26.914 319.906 24.9577 322.317 23.4081C324.727 21.8585 327.448 21.0837 330.488 21.0837C334.97 21.0837 338.291 22.4493 340.44 25.1901C342.599 27.9309 343.673 32.1244 343.673 37.7609V65.8952H340.692V38.1774C340.692 33.364 339.878 29.771 338.242 27.3885C336.606 25.0061 333.915 23.8245 330.149 23.8245C327.438 23.8245 324.96 24.5412 322.723 25.9842C320.487 27.4273 317.98 29.5773 315.211 32.4537V65.9049H312.219L312.229 65.8952Z" fill="black"/>
<path d="M361.351 11.1181C360.47 11.1181 359.744 10.8179 359.192 10.2077C358.641 9.5976 358.36 8.7744 358.36 7.71876C358.36 6.77934 358.641 6.01424 359.192 5.43315C359.744 4.85207 360.461 4.56152 361.351 4.56152C362.184 4.56152 362.891 4.85207 363.472 5.43315C364.052 6.01424 364.343 6.77934 364.343 7.71876C364.343 8.7744 364.052 9.5976 363.472 10.2077C362.891 10.8179 362.184 11.1181 361.351 11.1181ZM359.938 65.8952V22.1588H362.929V65.8952H359.938Z" fill="black"/>
<path d="M398.924 65.8952V5.64621H403.823L416.679 41.9932C417.512 44.211 418.335 46.4578 419.167 48.7531C420 51.0484 420.823 53.334 421.656 55.6003H421.985C422.817 53.334 423.611 51.0484 424.395 48.7531C425.17 46.4578 425.944 44.2013 426.719 41.9932L439.663 5.64621H444.561V65.9049H441.492V24.2313C441.492 22.6236 441.502 20.9288 441.531 19.1274C441.56 17.326 441.599 15.5053 441.657 13.6458C441.715 11.796 441.763 10.0625 441.822 8.45479H441.492L436.845 21.7326L423.321 59.1643H420.087L406.485 21.7326L401.761 8.45479H401.432C401.538 10.0625 401.625 11.7864 401.683 13.6458C401.741 15.5053 401.78 17.326 401.809 19.1274C401.838 20.9288 401.848 22.6236 401.848 24.2313V65.8952H398.943H398.924Z" fill="black"/>
<path d="M478.572 66.9799C474.922 66.9799 471.572 66.0695 468.532 64.2391C465.492 62.4087 463.072 59.8035 461.271 56.3944C459.471 52.9951 458.58 48.9081 458.58 44.1529C458.58 40.5598 459.093 37.3445 460.119 34.5262C461.145 31.7079 462.549 29.2868 464.35 27.2626C466.151 25.2482 468.164 23.7083 470.41 22.6527C472.647 21.6067 474.99 21.0741 477.419 21.0741C480.789 21.0741 483.712 21.8488 486.171 23.3984C488.63 24.948 490.538 27.2336 491.893 30.2455C493.248 33.2575 493.926 36.928 493.926 41.2378V42.6033C493.926 43.0779 493.868 43.6105 493.761 44.2207H460.245V41.4799H491.022C491.022 35.5625 489.773 31.1365 487.285 28.2021C484.797 25.2676 481.505 23.8052 477.41 23.8052C474.922 23.8052 472.472 24.5509 470.071 26.0424C467.661 27.5338 465.676 29.7613 464.098 32.7248C462.52 35.6884 461.736 39.4364 461.736 43.9689C461.736 48.0655 462.481 51.6295 463.972 54.6705C465.463 57.7116 467.496 60.065 470.071 61.7211C472.647 63.3771 475.532 64.21 478.746 64.21C481.234 64.21 483.47 63.8807 485.465 63.2125C487.459 62.5443 489.25 61.6629 490.857 60.5589L492.106 62.7961C490.45 63.8517 488.592 64.8008 486.549 65.6628C484.506 66.5247 481.844 66.9508 478.581 66.9508L478.572 66.9799Z" fill="black"/>
<path d="M85.3687 128.856V130.26H46.8181V128.856H85.3687Z" fill="black"/>
<path d="M110.24 111.297C108.788 113.68 107.016 116.043 104.915 118.367C102.815 120.701 100.51 122.851 98.0127 124.827C95.515 126.803 92.9301 128.459 90.2581 129.795C90.1419 129.65 89.9967 129.495 89.8127 129.301C89.6288 129.117 89.4545 128.972 89.2803 128.856C91.9523 127.548 94.5372 125.931 97.0349 123.994C99.5327 122.067 101.837 119.956 103.938 117.689C106.038 115.413 107.781 113.118 109.175 110.784L110.24 111.297ZM109.224 122.125V149.184H107.946V122.125H109.224ZM109.049 112.576C110.472 114.794 112.109 116.856 113.967 118.755C115.826 120.663 117.927 122.435 120.27 124.081C122.613 125.728 125.188 127.316 128.005 128.856C127.831 128.972 127.666 129.117 127.492 129.301C127.318 129.485 127.182 129.66 127.066 129.834C124.229 128.246 121.645 126.59 119.311 124.866C116.978 123.152 114.887 121.311 113.028 119.345C111.169 117.389 109.495 115.268 108.023 112.992L109.049 112.566V112.576Z" fill="black"/>
<path d="M144.105 132.439C143.311 133.863 142.294 135.238 141.055 136.575C139.816 137.911 138.48 139.122 137.047 140.197C135.614 141.281 134.211 142.153 132.855 142.841C132.797 142.724 132.71 142.618 132.603 142.502C132.487 142.385 132.371 142.279 132.265 142.163C132.148 142.047 132.032 141.95 131.926 141.863C133.32 141.233 134.714 140.41 136.118 139.393C137.522 138.366 138.838 137.224 140.058 135.945C141.278 134.667 142.285 133.359 143.079 132.023L144.105 132.449V132.439ZM170.002 131.713V132.953H132.39V131.713H170.002ZM168.347 115.82V117.099H134.094V115.82H168.347ZM167.194 146.84V148.08H135.246V146.84H167.194ZM161.831 139.257V140.536H140.571V139.257H161.831ZM142.449 110.833V132.439H141.21V110.833H142.449ZM160.466 120.934V122.173H141.975V120.934H160.466ZM160.466 126.212V127.49H141.975V126.212H160.466ZM151.734 134.783V147.393H150.456V134.783H151.734ZM159.44 132.013C160.176 133.321 161.134 134.58 162.315 135.78C163.496 136.991 164.803 138.056 166.236 138.996C167.669 139.935 169.121 140.662 170.602 141.165C170.515 141.252 170.418 141.349 170.302 141.465C170.186 141.582 170.079 141.698 169.983 141.824C169.886 141.95 169.789 142.076 169.702 142.182C168.25 141.582 166.807 140.778 165.355 139.751C163.903 138.725 162.577 137.582 161.376 136.323C160.166 135.064 159.178 133.747 158.414 132.381L159.44 131.994V132.013ZM161.318 110.833V132.439H160.079V110.833H161.318Z" fill="black"/>
<path d="M212.6 128.304V129.582H174.988V128.304H212.6ZM209.579 114.154V115.433H178.018V114.154H209.579ZM194.757 146.414C194.757 147.179 194.612 147.731 194.331 148.051C194.05 148.38 193.605 148.613 193.014 148.758C192.443 148.874 191.514 148.932 190.226 148.952C188.939 148.961 187.167 148.971 184.921 148.971C184.892 148.855 184.844 148.719 184.776 148.564C184.708 148.409 184.631 148.254 184.563 148.1C184.495 147.945 184.427 147.79 184.369 147.654C185.647 147.683 186.828 147.693 187.903 147.693C188.977 147.693 189.907 147.693 190.672 147.673C191.436 147.654 191.959 147.654 192.25 147.654C192.705 147.625 193.024 147.538 193.208 147.373C193.392 147.218 193.489 146.908 193.489 146.453V114.455H194.767V146.414H194.757Z" fill="black"/>
<path d="M224.914 146.201L235.951 115.268H237.354L248.43 146.201H246.726L240.298 127.665C239.639 125.786 239.029 124.004 238.468 122.319C237.897 120.634 237.335 118.822 236.764 116.886H236.59C236.018 118.822 235.447 120.634 234.866 122.319C234.285 124.014 233.666 125.796 233.017 127.665L226.502 146.201H224.924H224.914ZM229.687 135.209V133.844H243.492V135.209H229.687Z" fill="black"/>
<path d="M253.58 146.201V115.268H255.158V146.201H253.58Z" fill="black"/>
<path d="M287.232 117.137L287.406 117.05L288.258 117.302C287.6 122.871 286.525 127.732 285.025 131.878C283.515 136.023 281.704 139.509 279.574 142.337C277.444 145.165 275.111 147.431 272.584 149.136C272.526 149.02 272.449 148.903 272.352 148.797C272.255 148.681 272.139 148.564 272.013 148.458C271.887 148.342 271.762 148.245 271.655 148.158C274.095 146.598 276.37 144.429 278.471 141.659C280.571 138.889 282.372 135.5 283.863 131.5C285.354 127.49 286.4 122.832 286.99 117.525V117.137H287.242H287.232ZM287.445 117.137V118.377H272.41V117.137H287.445ZM275.218 125.747C276.641 127.025 278.054 128.401 279.477 129.863C280.901 131.326 282.256 132.827 283.544 134.357C284.831 135.887 285.993 137.369 287.019 138.792C288.045 140.216 288.868 141.524 289.488 142.715L288.423 143.567C287.794 142.376 286.971 141.049 285.935 139.606C284.899 138.153 283.747 136.662 282.488 135.132C281.22 133.601 279.894 132.081 278.48 130.589C277.076 129.098 275.663 127.713 274.24 126.435L275.218 125.757V125.747ZM309.722 121.825V123.103H289.575V121.825H309.722ZM292.683 128.643C293.389 129.669 294.077 130.773 294.725 131.965C295.374 133.156 295.955 134.318 296.449 135.442C296.942 136.565 297.31 137.563 297.533 138.444L296.342 138.957C296.11 138.076 295.761 137.069 295.277 135.935C294.793 134.802 294.232 133.63 293.593 132.42C292.954 131.209 292.276 130.096 291.569 129.079L292.673 128.653L292.683 128.643ZM304.097 146.879C304.097 147.557 303.971 148.041 303.71 148.332C303.458 148.613 303.08 148.826 302.606 148.971C302.151 149.087 301.415 149.146 300.408 149.165C299.401 149.175 297.969 149.184 296.129 149.184C296.1 149.068 296.052 148.942 295.984 148.797C295.916 148.652 295.848 148.506 295.79 148.351C295.732 148.196 295.674 148.061 295.616 147.945C297.117 147.974 298.433 147.983 299.556 147.983C300.679 147.983 301.405 147.964 301.754 147.945C302.122 147.916 302.393 147.828 302.567 147.693C302.741 147.548 302.819 147.276 302.819 146.879V110.784H304.097V146.879Z" fill="black"/>
<path d="M321.436 124.42V125.699H314.02V124.42H321.436ZM317.776 112.363C318.483 112.934 319.199 113.564 319.926 114.261C320.652 114.958 321.329 115.636 321.968 116.304C322.607 116.973 323.13 117.563 323.527 118.077L322.636 119.103C322.239 118.561 321.726 117.951 321.107 117.253C320.477 116.556 319.809 115.859 319.083 115.142C318.357 114.435 317.641 113.777 316.934 113.186L317.786 112.372L317.776 112.363ZM319.693 147.567C319.635 147.451 319.558 147.334 319.461 147.208C319.364 147.083 319.258 146.957 319.141 146.821C319.025 146.695 318.909 146.589 318.803 146.502C319.025 146.356 319.306 146.124 319.635 145.795C319.964 145.465 320.264 145.068 320.526 144.584C320.797 144.1 320.932 143.548 320.932 142.918V124.42H322.172V144.874C321.659 145.301 321.252 145.659 320.932 145.959C320.623 146.259 320.332 146.56 320.08 146.85C319.829 147.15 319.693 147.383 319.693 147.557V147.567ZM319.645 146.288L320.371 145.223L327.361 140.623C327.39 140.739 327.429 140.855 327.487 140.962C327.545 141.078 327.603 141.194 327.68 141.32C327.748 141.446 327.796 141.553 327.825 141.64C326.151 142.802 324.805 143.741 323.779 144.448C322.752 145.155 321.978 145.707 321.436 146.085C320.894 146.472 320.506 146.763 320.264 146.976C320.022 147.189 319.829 147.383 319.693 147.547L319.654 146.269L319.645 146.288ZM349.463 112.198C348.185 112.653 346.684 113.089 344.971 113.515C343.248 113.941 341.418 114.329 339.472 114.687C337.526 115.045 335.561 115.365 333.576 115.646C331.591 115.927 329.655 116.188 327.787 116.411C327.758 116.266 327.69 116.091 327.593 115.878C327.496 115.665 327.399 115.491 327.312 115.346C329.161 115.123 331.078 114.852 333.063 114.561C335.048 114.261 337.003 113.932 338.92 113.583C340.837 113.225 342.609 112.857 344.245 112.45C345.881 112.053 347.265 111.636 348.398 111.21L349.463 112.188V112.198ZM352.28 124.207V125.486H327.825V124.207H352.28ZM349.25 133.844V149.01H348.011V135.073H330.972V149.175H329.733V133.834H349.24L349.25 133.844ZM348.659 146.027V147.267H330.556V146.027H348.659ZM340.227 113.941V134.822H338.949V113.941H340.227Z" fill="black"/>
<path d="M359.947 117.602V148.245H358.669V117.602H359.947ZM371.875 129.921V131.161H359.27V129.921H371.875ZM372.301 117.602V144.623H359.483V143.344H371.023V118.842H359.483V117.602H372.301ZM366.976 111.084C366.608 112.247 366.192 113.496 365.717 114.813C365.253 116.13 364.788 117.254 364.333 118.154L363.268 117.767C363.549 117.147 363.839 116.411 364.139 115.568C364.439 114.726 364.72 113.874 364.991 112.992C365.262 112.111 365.485 111.326 365.65 110.649L366.966 111.075L366.976 111.084ZM381.672 110.707C381.188 112.837 380.617 114.9 379.949 116.905C379.281 118.91 378.535 120.779 377.712 122.532C376.889 124.275 375.979 125.834 374.982 127.2C374.924 127.142 374.827 127.074 374.682 126.987C374.537 126.9 374.401 126.812 374.256 126.735C374.111 126.648 373.985 126.58 373.869 126.522C374.866 125.185 375.766 123.665 376.599 121.96C377.422 120.256 378.158 118.425 378.797 116.459C379.436 114.503 379.978 112.498 380.433 110.455L381.672 110.707ZM379.581 126.9C380.491 127.926 381.401 129.04 382.33 130.241C383.25 131.451 384.102 132.614 384.886 133.737C385.67 134.86 386.3 135.848 386.784 136.701L385.719 137.427C385.264 136.575 384.644 135.567 383.87 134.405C383.085 133.243 382.233 132.052 381.314 130.851C380.394 129.64 379.484 128.527 378.613 127.51L379.591 126.909L379.581 126.9ZM392.534 117.651V118.929H378.816V117.651H392.534ZM393.299 117.651V118.629C393.096 123.597 392.912 127.791 392.728 131.2C392.544 134.609 392.331 137.388 392.089 139.529C391.847 141.679 391.576 143.325 391.276 144.468C390.976 145.62 390.617 146.434 390.191 146.918C389.824 147.344 389.436 147.635 389.039 147.79C388.642 147.945 388.12 148.041 387.461 148.07C386.832 148.1 385.97 148.09 384.867 148.051C383.763 148.012 382.621 147.945 381.459 147.857C381.43 147.635 381.391 147.402 381.333 147.179C381.275 146.947 381.178 146.763 381.033 146.627C382.456 146.744 383.734 146.811 384.886 146.841C386.038 146.87 386.842 146.879 387.297 146.879C387.723 146.879 388.081 146.841 388.362 146.773C388.642 146.705 388.884 146.521 389.088 146.24C389.456 145.843 389.785 145.068 390.066 143.916C390.346 142.763 390.608 141.107 390.83 138.947C391.053 136.788 391.266 133.999 391.469 130.57C391.663 127.151 391.857 122.968 392.021 118.019V117.631H393.299V117.651Z" fill="black"/>
<path d="M404.839 126.551C404.607 128.062 404.278 129.766 403.842 131.684C403.397 133.601 402.893 135.509 402.332 137.417C401.761 139.325 401.122 141.001 400.415 142.444L399.263 141.843C399.97 140.42 400.618 138.783 401.199 136.923C401.78 135.064 402.283 133.185 402.709 131.296C403.135 129.408 403.465 127.723 403.687 126.251L404.839 126.551ZM410.89 144.836C410.89 145.804 411.113 146.443 411.548 146.753C411.984 147.063 412.904 147.218 414.298 147.218H424.608C425.654 147.218 426.438 146.966 426.951 146.453C427.464 145.94 427.813 144.981 428.016 143.577C428.21 142.172 428.374 140.129 428.481 137.466C428.626 137.553 428.762 137.64 428.907 137.747C429.052 137.843 429.197 137.921 429.352 137.979C429.507 138.037 429.643 138.095 429.759 138.153C429.643 140.855 429.449 142.957 429.188 144.458C428.916 145.969 428.432 147.015 427.735 147.615C427.038 148.216 425.964 148.506 424.521 148.506H414.424C413.204 148.506 412.245 148.409 411.548 148.206C410.851 148.003 410.358 147.635 410.057 147.102C409.757 146.56 409.612 145.795 409.612 144.797V122.425H410.89V144.836ZM413.02 113.176C414.385 114.174 415.779 115.268 417.212 116.459C418.645 117.651 419.981 118.832 421.22 119.994C422.459 121.157 423.466 122.193 424.269 123.103L423.456 123.955C422.662 123.045 421.636 121.999 420.387 120.798C419.138 119.607 417.793 118.396 416.36 117.176C414.927 115.956 413.523 114.852 412.168 113.854L413.02 113.176ZM431.637 125.447C432.489 127.151 433.312 128.982 434.106 130.919C434.899 132.865 435.606 134.773 436.235 136.633C436.865 138.492 437.329 140.168 437.639 141.64L436.448 142.027C436.139 140.555 435.664 138.87 435.045 137.001C434.415 135.122 433.718 133.204 432.934 131.248C432.15 129.292 431.337 127.471 430.485 125.796L431.637 125.457V125.447Z" fill="black"/>
<path d="M441.56 142.957C442.635 142.618 443.864 142.231 445.249 141.785C446.623 141.349 448.095 140.855 449.654 140.313C451.212 139.771 452.79 139.219 454.378 138.647L454.552 139.926C452.306 140.691 450.089 141.456 447.882 142.231C445.684 142.996 443.709 143.683 441.986 144.274L441.56 142.957ZM454.426 114.116V115.394H441.986V114.116H454.426ZM453.913 126.512V127.791H442.451V126.512H453.913ZM449.14 114.619V141.252L447.863 141.679V114.619H449.14ZM480.498 146.502V147.741H452.684V146.502H480.498ZM479.007 137.592V138.831H456.256V137.592H479.007ZM478.281 112.963V131.2H457.021V112.963H478.281ZM458.26 121.399H477.003V114.193H458.26V121.399ZM458.26 129.96H477.003V122.629H458.26V129.96ZM468.183 113.767V146.966H466.905V113.767H468.183Z" fill="black"/>
<path d="M493.868 111.133C493.19 113.438 492.396 115.685 491.505 117.883C490.615 120.082 489.627 122.154 488.562 124.081C487.497 126.018 486.355 127.742 485.135 129.282C485.077 129.195 484.99 129.088 484.884 128.962C484.767 128.837 484.651 128.711 484.545 128.575C484.428 128.449 484.312 128.343 484.206 128.255C486.026 126.125 487.652 123.529 489.105 120.459C490.557 117.389 491.728 114.183 492.638 110.833L493.877 111.133H493.868ZM490.721 119.142V149.058H489.482V120.382L490.721 119.142ZM501.283 126.812L501.535 126.774L502.348 126.987C501.748 132.836 500.654 137.553 499.047 141.117C497.44 144.681 495.407 147.373 492.938 149.194C492.88 149.078 492.793 148.961 492.658 148.855C492.532 148.739 492.406 148.623 492.299 148.497C492.183 148.371 492.067 148.274 491.96 148.216C494.371 146.511 496.356 143.945 497.905 140.526C499.454 137.107 500.48 132.652 500.993 127.171V126.832H501.293L501.283 126.812ZM494.681 132.604C495.62 135.868 496.869 138.502 498.428 140.487C499.986 142.473 501.758 143.984 503.733 145C505.708 146.027 507.818 146.705 510.084 147.044C512.339 147.383 514.644 147.557 517.006 147.557H522.844C522.727 147.732 522.611 147.945 522.485 148.196C522.359 148.448 522.282 148.661 522.253 148.836H516.967C514.469 148.836 512.049 148.652 509.706 148.284C507.363 147.916 505.166 147.199 503.123 146.134C501.08 145.068 499.25 143.499 497.624 141.427C496.007 139.354 494.671 136.613 493.616 133.204L494.681 132.604ZM494.294 128.817C494.265 128.701 494.216 128.565 494.148 128.41C494.081 128.255 494.003 128.11 493.935 127.965C493.868 127.82 493.79 127.694 493.703 127.578C494.013 127.519 494.371 127.268 494.768 126.812C495.165 126.357 495.562 125.815 495.959 125.195C496.24 124.769 496.714 123.994 497.382 122.871C498.05 121.747 498.757 120.44 499.512 118.948C500.267 117.457 500.906 115.956 501.448 114.455V114.28L502 113.941L502.978 114.542C501.787 117.099 500.557 119.549 499.289 121.893C498.021 124.236 496.753 126.26 495.475 127.965V128.004C495.242 128.091 495.049 128.168 494.875 128.236C494.7 128.304 494.565 128.391 494.449 128.488C494.332 128.585 494.274 128.691 494.274 128.807L494.294 128.817ZM501.922 114.28V115.559H494.342V114.28H501.922ZM501.496 126.812V128.091H494.894L495.446 126.812H501.496ZM522.117 138.105V139.345H502.184V138.105H522.117ZM522.795 120.508V121.786H502.474V120.508H522.795ZM520.452 132.226V133.466H503.5V132.226H520.452ZM519.213 114.706V127.742H504.556V126.464H517.974V115.936H504.556V114.697H519.213V114.706ZM511.972 110.784V145.727H510.732V110.784H511.972Z" fill="black"/>
<path d="M531.441 127.829C531.441 129.418 531.402 131.132 531.315 132.962C531.228 134.793 531.063 136.671 530.802 138.589C530.55 140.507 530.163 142.386 529.65 144.216C529.136 146.046 528.468 147.761 527.646 149.349C527.558 149.262 527.452 149.175 527.326 149.097C527.2 149.01 527.074 148.923 526.939 148.845C526.813 148.758 526.687 148.7 526.581 148.671C527.403 147.141 528.052 145.485 528.536 143.703C529.02 141.93 529.378 140.11 529.62 138.25C529.863 136.391 530.017 134.57 530.085 132.798C530.153 131.025 530.192 129.369 530.192 127.829V115.007H531.431V127.829H531.441ZM564.879 115.007V116.246H530.84V115.007H564.879ZM531.654 146.24C533.27 145.611 535.236 144.816 537.53 143.858C539.834 142.889 542.177 141.93 544.559 140.962L544.81 141.988C542.622 142.957 540.434 143.896 538.246 144.826C536.058 145.746 534.103 146.579 532.37 147.315L531.644 146.25L531.654 146.24ZM560.281 126.512V127.791H532.806V126.512H560.281ZM534.684 135.035C535.71 135.432 536.765 135.897 537.859 136.42C538.953 136.943 539.989 137.475 540.967 137.998C541.945 138.521 542.758 138.996 543.416 139.422L542.739 140.4C542.08 139.945 541.267 139.451 540.289 138.909C539.311 138.366 538.275 137.834 537.182 137.291C536.088 136.749 535.032 136.284 534.006 135.887L534.684 135.035ZM560.707 120.885V133.669H534.848V132.391H559.468V122.125H535.1V120.885H560.697H560.707ZM548.528 146.84C548.528 147.518 548.402 148.012 548.17 148.313C547.928 148.613 547.569 148.826 547.085 148.971C546.543 149.087 545.74 149.145 544.655 149.165C543.581 149.175 542.158 149.184 540.396 149.184C540.338 149.01 540.26 148.797 540.163 148.545C540.067 148.293 539.941 148.061 539.805 147.867C540.851 147.896 541.819 147.906 542.7 147.906C543.581 147.906 544.336 147.906 544.956 147.886C545.575 147.867 546.02 147.867 546.272 147.867C546.669 147.838 546.931 147.761 547.056 147.635C547.182 147.509 547.25 147.257 547.25 146.889V115.743H548.528V146.85V146.84ZM546.262 110.445C546.834 111.152 547.415 111.946 548.005 112.808C548.605 113.68 549.041 114.426 549.322 115.045L548.17 115.646C547.86 115.016 547.415 114.261 546.853 113.37C546.282 112.479 545.72 111.675 545.149 110.958L546.253 110.445H546.262ZM551.297 141.001C552.72 141.514 554.211 142.105 555.789 142.773C557.367 143.441 558.858 144.119 560.281 144.797C561.704 145.475 562.875 146.104 563.815 146.676L563.214 147.78C562.275 147.209 561.094 146.579 559.681 145.882C558.257 145.184 556.767 144.487 555.189 143.79C553.611 143.092 552.1 142.473 550.648 141.94L551.287 141.001H551.297ZM562.024 135.548C561.113 136.119 560.068 136.671 558.867 137.214C557.677 137.756 556.467 138.25 555.247 138.705C554.027 139.16 552.904 139.577 551.878 139.945L551.277 138.967C552.275 138.628 553.378 138.211 554.598 137.708C555.818 137.214 557.028 136.691 558.219 136.149C559.41 135.606 560.436 135.103 561.288 134.618L562.014 135.558L562.024 135.548ZM565.305 126.512V127.791H560.194V126.512H565.305Z" fill="black"/>
<path d="M602.965 116.924V148.971H601.726V118.164H576.42V149.31H575.142V116.924H602.956H602.965ZM602.326 126.512V127.791H576.003V126.512H602.326ZM602.326 135.926V137.165H576.003V135.926H602.326ZM602.326 145.388V146.666H576.003V145.388H602.326ZM589.208 111.046C588.782 112.179 588.337 113.37 587.892 114.6C587.437 115.84 586.972 116.905 586.488 117.815L585.423 117.563C585.704 116.934 586.014 116.217 586.343 115.394C586.672 114.571 586.982 113.748 587.282 112.924C587.582 112.101 587.814 111.365 587.989 110.707L589.228 111.046H589.208Z" fill="black"/>
<path d="M619.917 124.42V125.699H612.211V124.42H619.917ZM615.87 112.837C616.635 113.467 617.419 114.154 618.213 114.9C619.007 115.656 619.752 116.392 620.449 117.118C621.146 117.844 621.689 118.493 622.086 119.055L621.234 120.033C620.779 119.433 620.207 118.774 619.53 118.028C618.852 117.292 618.116 116.527 617.332 115.752C616.548 114.968 615.773 114.251 615.009 113.602L615.861 112.837H615.87ZM617.913 148.032C617.855 147.916 617.787 147.79 617.7 147.644C617.613 147.499 617.526 147.363 617.419 147.218C617.322 147.073 617.216 146.966 617.1 146.879C617.409 146.705 617.806 146.376 618.291 145.882C618.775 145.388 619.017 144.7 619.017 143.819V124.391H620.256V145.785C619.772 146.124 619.384 146.424 619.084 146.676C618.784 146.928 618.513 147.179 618.271 147.422C618.029 147.664 617.913 147.867 617.913 148.041V148.032ZM617.874 146.753L618.6 145.649L625.59 141.049C625.648 141.223 625.726 141.407 625.822 141.601C625.919 141.804 625.997 141.959 626.055 142.066C624.351 143.257 622.986 144.216 621.969 144.923C620.943 145.63 620.169 146.182 619.627 146.56C619.084 146.947 618.707 147.238 618.474 147.451C618.242 147.664 618.058 147.857 617.923 148.022L617.884 146.744L617.874 146.753ZM650.5 131.5V132.739H623.789V131.5H650.5ZM648.331 113.176V114.416H625.203V113.176H648.331ZM628.398 117.525C628.882 118.687 629.317 119.946 629.695 121.292C630.082 122.638 630.411 123.955 630.692 125.234C630.973 126.512 631.176 127.645 631.292 128.643L630.053 129.069C629.966 128.042 629.792 126.89 629.521 125.592C629.25 124.304 628.92 122.987 628.543 121.65C628.156 120.314 627.739 119.055 627.284 117.854L628.388 117.515L628.398 117.525ZM637.421 113.476V149.184H636.143V113.476H637.421ZM646.753 117.864C646.414 119.084 646.037 120.391 645.621 121.786C645.204 123.181 644.788 124.527 644.362 125.834C643.936 127.142 643.51 128.294 643.084 129.282L641.98 128.817C642.377 127.82 642.794 126.648 643.22 125.302C643.646 123.955 644.052 122.57 644.43 121.166C644.817 119.762 645.117 118.503 645.349 117.399L646.753 117.864Z" fill="black"/>
<path d="M692.72 132.052V133.292H655.108V132.052H692.72ZM690.377 113.903V115.181H657.277V113.903H690.377ZM661.75 117.902C662.398 119.036 663.037 120.266 663.667 121.563C664.296 122.871 664.848 124.139 665.332 125.36C665.816 126.58 666.184 127.636 666.435 128.517L665.283 129.03C665.032 128.091 664.654 127.016 664.18 125.796C663.696 124.575 663.153 123.307 662.544 121.98C661.934 120.663 661.304 119.433 660.646 118.29L661.75 117.902ZM674.403 114.242V149.184H673.125V114.242H674.403ZM687.134 118.115C686.592 119.307 685.991 120.595 685.323 121.97C684.655 123.345 683.978 124.682 683.3 125.98C682.622 127.268 681.954 128.401 681.296 129.369L680.318 128.904C680.938 127.936 681.596 126.783 682.274 125.457C682.952 124.12 683.61 122.764 684.23 121.389C684.859 120.014 685.382 118.764 685.808 117.66L687.124 118.125L687.134 118.115Z" fill="black"/>
<path d="M700.426 127.752C700.426 127.636 700.397 127.5 700.339 127.326C700.281 127.151 700.223 126.987 700.165 126.812C700.107 126.638 700.049 126.502 699.99 126.386C700.387 126.328 700.881 126.057 701.462 125.573C702.043 125.088 702.692 124.498 703.398 123.781C703.795 123.413 704.395 122.813 705.209 121.97C706.022 121.137 706.932 120.14 707.958 118.987C708.984 117.835 710.02 116.595 711.085 115.258C712.15 113.922 713.147 112.576 714.086 111.21L715.326 111.762C713.844 113.719 712.353 115.617 710.833 117.428C709.313 119.249 707.784 120.953 706.235 122.541C704.686 124.13 703.147 125.582 701.617 126.89V126.929C701.385 127.016 701.191 127.103 701.017 127.18C700.842 127.268 700.707 127.355 700.591 127.461C700.475 127.558 700.416 127.655 700.416 127.742L700.426 127.752ZM700.426 126.764L701.743 126.086L730.031 124.42C730.06 124.595 730.089 124.788 730.118 125.021C730.147 125.253 730.186 125.437 730.244 125.573C725.781 125.825 721.967 126.057 718.782 126.251C715.597 126.454 712.954 126.619 710.833 126.764C708.713 126.909 707.009 127.016 705.702 127.103C704.395 127.19 703.398 127.268 702.701 127.335C702.004 127.403 701.501 127.471 701.191 127.529C700.881 127.587 700.62 127.655 700.426 127.742V126.764ZM729.392 132.091V149.01H728.114V133.33H704.86V149.184H703.582V132.1H729.392V132.091ZM728.753 145.436V146.715H704.299V145.436H728.753ZM722.451 116.537C723.922 117.728 725.413 119.065 726.904 120.546C728.395 122.028 729.77 123.49 731.019 124.953C732.268 126.415 733.245 127.732 733.962 128.895L732.81 129.708C732.103 128.517 731.135 127.18 729.915 125.699C728.695 124.227 727.34 122.745 725.868 121.263C724.387 119.791 722.916 118.435 721.434 117.215L722.461 116.537H722.451Z" fill="black"/>
<path d="M6.51546 185.705C6.51546 187.236 6.44769 188.872 6.32183 190.606C6.19598 192.34 5.94426 194.083 5.57638 195.845C5.20849 197.608 4.65666 199.313 3.91121 200.959C3.17544 202.605 2.17827 204.145 0.929396 205.559C0.871309 205.443 0.784178 205.336 0.677685 205.22C0.571192 205.104 0.445336 204.998 0.338842 204.901C0.222668 204.804 0.106493 204.726 0 204.668C1.19079 203.303 2.13955 201.831 2.85596 200.262C3.56269 198.683 4.09515 197.066 4.434 195.4C4.77284 193.734 5.00519 192.088 5.11168 190.432C5.22786 188.785 5.28594 187.207 5.28594 185.705V170.113H6.52514V185.705H6.51546ZM34.7168 190.48V191.72H5.57638V190.48H34.7168ZM34.9298 170.113V171.391H5.96363V170.113H34.9298ZM34.7168 180.166V181.444H5.96363V180.166H34.7168ZM20.195 170.5V205.104H18.9171V170.5H20.195ZM35.3945 202.673C35.3945 203.38 35.2783 203.913 35.0363 204.252C34.7943 204.591 34.3877 204.833 33.8262 204.978C33.284 205.094 32.403 205.152 31.1638 205.172C29.9246 205.182 28.2595 205.172 26.1586 205.152C26.1296 205.007 26.0618 204.814 25.9457 204.552C25.8295 204.3 25.7133 204.068 25.6068 203.874C26.7976 203.903 27.9109 203.913 28.9275 203.913C29.944 203.913 30.8153 203.913 31.522 203.893C32.2288 203.874 32.7322 203.874 33.0129 203.874C33.4389 203.845 33.739 203.758 33.9036 203.593C34.0779 203.438 34.1553 203.148 34.1553 202.722V170.123H35.3945V202.683V202.673Z" fill="black"/>
<path d="M79.8315 180.34V181.619H43.5366V180.34H79.8315ZM76.7625 172.583V173.822H46.8573V172.583H76.7625ZM61.3791 167.304C60.837 168.951 60.2367 170.752 59.5687 172.699C58.9007 174.645 58.2037 176.602 57.4776 178.578C56.7515 180.553 56.0544 182.432 55.3864 184.204C54.7184 185.977 54.0988 187.526 53.5373 188.824H52.2594C52.8596 187.458 53.4986 185.88 54.1956 184.069C54.8927 182.267 55.5994 180.369 56.3255 178.384C57.0516 176.398 57.7486 174.432 58.4166 172.486C59.0847 170.539 59.6849 168.747 60.227 167.091L61.3791 167.304ZM53.1597 196.194C54.6894 196.707 56.2965 197.279 57.9713 197.918C59.6462 198.557 61.3016 199.235 62.9378 199.942C64.5739 200.649 66.0938 201.366 67.4976 202.092C68.9014 202.818 70.1212 203.506 71.1378 204.155L70.1987 205.182C69.2306 204.552 68.0495 203.884 66.665 203.157C65.2709 202.431 63.7704 201.705 62.1536 200.959C60.5368 200.223 58.891 199.506 57.2162 198.828C55.5413 198.15 53.9052 197.55 52.3175 197.037L53.1694 196.184L53.1597 196.194ZM74.3326 187.584V188.824H53.2469V187.584H74.3326ZM74.4197 187.584L74.6714 187.458L75.6105 188.098C74.5262 189.182 73.2676 190.422 71.8154 191.826C70.3633 193.231 68.8724 194.693 67.3234 196.194C65.7744 197.705 64.2931 199.119 62.87 200.455L61.7663 199.729C63.1895 198.422 64.6804 197.027 66.2391 195.536C67.7977 194.044 69.279 192.62 70.6731 191.255C72.0672 189.889 73.1999 188.756 74.0808 187.846V187.594H74.4197V187.584Z" fill="black"/>
<path d="M123.232 201.685V202.964H86.3855V201.685H123.232ZM88.9026 177.57C89.7546 179.052 90.6065 180.631 91.4585 182.325C92.3104 184.02 93.0946 185.647 93.8207 187.226C94.5468 188.805 95.1083 190.16 95.5052 191.294L94.2273 191.846C93.8303 190.683 93.2785 189.299 92.5621 187.691C91.8554 186.083 91.0809 184.427 90.2386 182.703C89.3964 180.989 88.5541 179.401 87.7021 177.948L88.8929 177.561L88.9026 177.57ZM100.443 167.469V202.412H99.2034V167.469H100.443ZM110.414 167.556V202.538H109.175V167.556H110.414ZM121.867 178.248C121.16 179.73 120.357 181.309 119.457 183.003C118.566 184.698 117.646 186.345 116.707 187.943C115.768 189.55 114.877 190.993 114.025 192.272L112.96 191.671C113.812 190.422 114.713 188.979 115.661 187.342C116.61 185.705 117.53 184.049 118.411 182.355C119.292 180.669 120.047 179.12 120.667 177.735L121.857 178.248H121.867Z" fill="black"/>
<path d="M166.556 203.051V204.291H128.179V203.051H166.556ZM166.168 180.892V182.171H128.557V180.892H166.168ZM163.448 198.412V199.652H131.5V198.412H163.448ZM162.383 184.689V195.129H133.029V184.689H162.383ZM160.931 168.409V178.597H133.794V168.409H160.931ZM134.269 189.25H161.105V185.967H134.269V189.25ZM134.269 193.889H161.105V190.519H134.269V193.889ZM135.033 172.844H159.701V169.648H135.033V172.844ZM135.033 177.357H159.701V174.074H135.033V177.357ZM147.9 185.241V203.651H146.622V185.241H147.9Z" fill="black"/>
<path d="M189.597 185.028C188.571 186.219 187.351 187.391 185.937 188.524C184.514 189.657 182.994 190.742 181.377 191.758C179.761 192.785 178.115 193.705 176.459 194.528C174.794 195.351 173.216 196.039 171.706 196.572C171.648 196.456 171.561 196.339 171.454 196.213C171.338 196.088 171.231 195.962 171.135 195.826C171.038 195.7 170.931 195.594 170.815 195.506C172.345 194.993 173.942 194.354 175.607 193.569C177.273 192.785 178.899 191.904 180.506 190.926C182.113 189.947 183.604 188.901 184.998 187.797C186.392 186.693 187.583 185.57 188.58 184.427L189.606 185.028H189.597ZM208.049 184.137V185.376H171.803V184.137H208.049ZM206.849 171.479V172.718H173.371V171.479H206.849ZM204.719 177.657V178.897H175.578V177.657H204.719ZM180.099 205.307C180.07 205.191 180.012 205.056 179.925 204.901C179.838 204.746 179.751 204.591 179.673 204.436C179.596 204.281 179.499 204.145 179.422 204.029C179.644 203.913 179.896 203.709 180.167 203.409C180.438 203.109 180.574 202.576 180.574 201.811V191.032H181.852V203.777C181.619 203.923 181.426 204.048 181.252 204.165C181.077 204.281 180.903 204.407 180.719 204.552C180.535 204.697 180.38 204.833 180.274 204.959C180.158 205.085 180.099 205.211 180.099 205.317V205.307ZM180.099 204.203L180.99 203.351L193.382 199.342C193.382 199.516 193.401 199.7 193.45 199.894C193.489 200.097 193.527 200.262 193.556 200.407C190.662 201.404 188.348 202.199 186.634 202.789C184.911 203.39 183.614 203.835 182.733 204.155C181.852 204.465 181.232 204.697 180.884 204.862C180.525 205.017 180.264 205.162 180.099 205.307V204.203ZM190.497 166.956V185.192H189.219V166.956H190.497ZM190.836 184.427C191.862 187.323 193.266 189.976 195.057 192.378C196.848 194.78 198.949 196.843 201.359 198.557C203.77 200.271 206.442 201.579 209.366 202.46C209.279 202.547 209.182 202.654 209.066 202.78C208.949 202.906 208.843 203.032 208.746 203.138C208.649 203.254 208.553 203.38 208.465 203.525C205.542 202.557 202.86 201.191 200.44 199.409C198.01 197.637 195.89 195.506 194.069 193.037C192.249 190.567 190.788 187.826 189.684 184.814L190.836 184.427ZM206.384 188.437C205.077 189.686 203.596 190.964 201.931 192.272C200.265 193.579 198.716 194.712 197.264 195.681L196.374 195.042C197.342 194.393 198.378 193.647 199.481 192.804C200.585 191.972 201.66 191.11 202.695 190.248C203.731 189.386 204.622 188.582 205.358 187.836L206.384 188.437Z" fill="black"/>
<path d="M247.278 170.665V171.905H215.504V170.665H247.278ZM233.259 202.925C233.259 203.632 233.133 204.136 232.901 204.436C232.659 204.736 232.223 204.959 231.604 205.094C231.004 205.211 230.035 205.269 228.69 205.288C227.344 205.298 225.514 205.307 223.22 205.307C223.191 205.133 223.123 204.93 223.026 204.688C222.929 204.446 222.823 204.223 222.707 204.029C224.072 204.058 225.301 204.078 226.415 204.097C227.518 204.107 228.457 204.107 229.222 204.097C229.987 204.078 230.529 204.058 230.839 204.029C231.294 204 231.594 203.913 231.759 203.748C231.914 203.593 231.991 203.332 231.991 202.964V181.696H233.269V202.915L233.259 202.925ZM247.191 170.665L247.491 170.578L248.43 171.217C247.181 172.641 245.671 174.055 243.918 175.459C242.156 176.863 240.317 178.18 238.4 179.401C236.483 180.621 234.634 181.657 232.843 182.51C232.785 182.422 232.698 182.335 232.591 182.229C232.475 182.132 232.369 182.025 232.272 181.928C232.175 181.832 232.078 181.754 231.991 181.696C233.327 181.066 234.692 180.34 236.076 179.498C237.471 178.665 238.836 177.754 240.191 176.796C241.537 175.827 242.786 174.849 243.938 173.851C245.09 172.854 246.077 171.905 246.9 170.994V170.655H247.2L247.191 170.665Z" fill="black"/>
<path d="M264.104 167.256C263.561 169.135 262.922 170.946 262.187 172.689C261.451 174.432 260.638 176.079 259.757 177.609C258.876 179.139 257.937 180.505 256.949 181.696C256.862 181.638 256.746 181.56 256.61 181.464C256.465 181.367 256.32 181.26 256.165 181.163C256.01 181.066 255.855 180.989 255.72 180.931C257.307 179.226 258.711 177.134 259.912 174.665C261.122 172.195 262.08 169.619 262.787 166.956L264.104 167.256ZM260.183 189.037C260.183 190.257 260.144 191.584 260.057 193.017C259.97 194.451 259.815 195.904 259.592 197.366C259.36 198.828 259.021 200.252 258.566 201.627C258.111 203.002 257.511 204.271 256.775 205.443C256.717 205.356 256.62 205.278 256.475 205.211C256.33 205.143 256.194 205.065 256.068 204.978C255.942 204.891 255.816 204.833 255.71 204.804C256.678 203.274 257.385 201.588 257.84 199.758C258.295 197.928 258.595 196.078 258.73 194.218C258.876 192.359 258.943 190.635 258.943 189.037V177.657H260.183V189.037ZM272.41 177.657V178.897H259.592V177.657H272.41ZM272.41 185.153V186.393H259.592V185.153H272.41ZM272.41 192.824V194.102H259.592V192.824H272.41ZM269.302 170.626V171.866H261.935V170.626H269.302ZM266.747 178.122V193.55H265.507V178.122H266.747ZM273.262 203.264C273.262 203.806 273.165 204.213 272.981 204.504C272.797 204.784 272.478 204.988 272.023 205.104C271.597 205.22 270.929 205.278 270.019 205.298C269.109 205.307 267.821 205.317 266.146 205.317C266.117 205.172 266.049 204.988 265.933 204.765C265.817 204.542 265.72 204.339 265.633 204.165C266.969 204.194 268.141 204.203 269.147 204.203C270.154 204.203 270.813 204.184 271.132 204.165C271.442 204.136 271.674 204.068 271.81 203.952C271.955 203.835 272.023 203.622 272.023 203.312V177.657H273.262V203.264ZM269.254 170.626L269.506 170.539L270.358 171.14C269.903 172.447 269.331 173.774 268.654 175.12C267.976 176.466 267.337 177.609 266.737 178.548C266.592 178.432 266.417 178.326 266.204 178.209C265.991 178.093 265.817 178.025 265.672 177.996C266.069 177.367 266.475 176.65 266.882 175.827C267.289 175.004 267.686 174.161 268.054 173.309C268.421 172.457 268.721 171.663 268.944 170.927V170.626H269.244H269.254ZM283.485 169.474C283.176 171.324 282.682 173.086 282.014 174.762C281.346 176.437 280.426 177.938 279.264 179.255C278.103 180.573 276.583 181.667 274.704 182.519C274.588 182.374 274.453 182.229 274.279 182.074C274.104 181.919 273.949 181.783 273.814 181.667C275.634 180.873 277.096 179.846 278.219 178.577C279.342 177.318 280.213 175.904 280.842 174.336C281.462 172.776 281.907 171.159 282.159 169.474H283.476H283.485ZM294.474 194.867V196.146H274.114V194.867H294.474ZM279.99 182.897C279.506 184.882 278.887 186.79 278.112 188.611C277.347 190.432 276.496 192.01 275.556 193.337C275.469 193.25 275.353 193.163 275.198 193.085C275.043 192.998 274.888 192.911 274.734 192.833C274.579 192.746 274.424 192.688 274.288 192.659C275.314 191.381 276.186 189.87 276.912 188.117C277.638 186.374 278.209 184.543 278.635 182.645L280 182.897H279.99ZM292.644 169.135V170.374H275.14V169.135H292.644ZM293.796 187.071V188.349H277.435V187.071H293.796ZM285.402 182.171V205.143H284.163V182.171H285.402ZM293.244 169.135C293.244 169.503 293.225 169.764 293.205 169.9C293.089 172.34 292.954 174.306 292.799 175.779C292.644 177.26 292.46 178.374 292.266 179.12C292.063 179.875 291.811 180.408 291.501 180.718C291.269 180.97 291.008 181.163 290.717 181.27C290.417 181.386 290.001 181.444 289.459 181.444C289.062 181.473 288.432 181.473 287.561 181.444C286.69 181.415 285.809 181.376 284.899 181.318C284.87 181.115 284.831 180.912 284.773 180.679C284.715 180.456 284.647 180.253 284.56 180.079C285.586 180.166 286.545 180.214 287.435 180.224C288.326 180.243 288.917 180.243 289.207 180.243C289.885 180.272 290.33 180.175 290.524 179.943C290.746 179.691 290.95 179.188 291.124 178.452C291.298 177.716 291.453 176.611 291.589 175.149C291.734 173.687 291.869 171.759 292.015 169.377V169.125H293.254L293.244 169.135Z" fill="black"/>
<path d="M332.007 173.096V205.143H330.768V174.336H305.461V205.482H304.184V173.096H331.998H332.007ZM331.368 182.684V183.962H305.045V182.684H331.368ZM331.368 192.097V193.337H305.045V192.097H331.368ZM331.368 201.559V202.838H305.045V201.559H331.368ZM318.241 167.217C317.815 168.35 317.369 169.542 316.924 170.772C316.469 172.011 316.004 173.077 315.52 173.987L314.455 173.735C314.736 173.106 315.046 172.389 315.375 171.566C315.704 170.743 316.014 169.919 316.314 169.096C316.614 168.273 316.847 167.537 317.021 166.878L318.26 167.217H318.241Z" fill="black"/>
<path d="M373.704 169.6V187.885H372.426V170.839H345.29V169.6H373.704ZM347.081 200.194C347.081 200.93 347.246 201.511 347.575 201.918C347.904 202.334 348.495 202.625 349.366 202.789C350.227 202.964 351.457 203.041 353.054 203.041H372.049C373.24 203.041 374.217 202.925 374.963 202.702C375.718 202.47 376.299 202.063 376.706 201.463C377.112 200.862 377.422 200.02 377.625 198.925C377.819 197.831 377.984 196.436 378.09 194.732C378.235 194.819 378.371 194.906 378.516 194.984C378.661 195.071 378.806 195.138 378.961 195.197C379.116 195.255 379.261 195.293 379.407 195.322C379.261 197.114 379.068 198.586 378.806 199.758C378.555 200.92 378.167 201.84 377.654 202.509C377.141 203.177 376.425 203.642 375.505 203.913C374.585 204.184 373.356 204.32 371.817 204.32H353.374C351.467 204.32 349.976 204.213 348.882 204C347.788 203.787 347.004 203.38 346.539 202.789C346.074 202.189 345.832 201.317 345.832 200.146V183.701H347.071V200.194H347.081ZM372.639 183.71V184.95H346.529V183.71H372.639Z" fill="black"/>
<path d="M387.899 207.96L387.348 206.808C388.345 206.236 389.158 205.462 389.797 204.483C390.436 203.505 390.755 202.333 390.755 200.968L390.116 198.411L391.695 200.416C391.491 200.726 391.269 200.929 391.017 201.036C390.765 201.133 390.494 201.181 390.204 201.181C389.72 201.181 389.313 201.026 388.964 200.716C388.626 200.406 388.451 199.98 388.451 199.438C388.451 198.866 388.626 198.44 388.984 198.14C389.342 197.84 389.739 197.694 390.194 197.694C390.814 197.694 391.327 197.966 391.704 198.508C392.091 199.05 392.275 199.777 392.275 200.677C392.275 202.266 391.859 203.699 391.017 204.958C390.175 206.217 389.139 207.224 387.89 207.96H387.899Z" fill="black"/>
<path d="M409.099 185.705C409.099 187.236 409.031 188.872 408.905 190.606C408.779 192.34 408.528 194.083 408.16 195.845C407.792 197.608 407.24 199.313 406.495 200.959C405.759 202.605 404.762 204.145 403.513 205.559C403.455 205.443 403.368 205.336 403.261 205.22C403.155 205.104 403.029 204.998 402.922 204.901C402.806 204.804 402.69 204.726 402.583 204.668C403.774 203.303 404.723 201.831 405.439 200.262C406.146 198.683 406.679 197.066 407.018 195.4C407.356 193.734 407.589 192.088 407.695 190.432C407.811 188.785 407.869 187.207 407.869 185.705V170.113H409.109V185.705H409.099ZM437.3 190.48V191.72H408.16V190.48H437.3ZM437.513 170.113V171.391H408.547V170.113H437.513ZM437.3 180.166V181.444H408.547V180.166H437.3ZM422.779 170.5V205.104H421.501V170.5H422.779ZM437.988 202.673C437.988 203.38 437.872 203.913 437.63 204.252C437.387 204.591 436.981 204.833 436.419 204.978C435.877 205.094 434.996 205.152 433.757 205.172C432.518 205.182 430.853 205.172 428.752 205.152C428.723 205.007 428.655 204.814 428.539 204.552C428.423 204.3 428.306 204.068 428.2 203.874C429.391 203.903 430.504 203.913 431.521 203.913C432.537 203.913 433.408 203.913 434.115 203.893C434.822 203.874 435.325 203.874 435.606 203.874C436.032 203.845 436.332 203.758 436.497 203.593C436.671 203.438 436.749 203.148 436.749 202.722V170.123H437.988V202.683V202.673Z" fill="black"/>
<path d="M446.294 179.1C447.233 179.468 448.182 179.914 449.15 180.447C450.118 180.97 451.028 181.512 451.9 182.064C452.761 182.616 453.468 183.139 454.01 183.623L453.284 184.65C452.742 184.166 452.045 183.643 451.174 183.071C450.302 182.5 449.383 181.957 448.405 181.434C447.427 180.911 446.469 180.447 445.53 180.05L446.294 179.11V179.1ZM446.885 203.864C447.65 202.76 448.521 201.414 449.479 199.836C450.448 198.257 451.406 196.601 452.374 194.848C453.342 193.105 454.223 191.429 455.017 189.841L455.908 190.654C455.172 192.165 454.339 193.763 453.42 195.468C452.5 197.172 451.561 198.828 450.612 200.436C449.663 202.044 448.773 203.487 447.95 204.765L446.885 203.874V203.864ZM448.637 167.517C449.547 167.856 450.486 168.283 451.474 168.776C452.461 169.27 453.371 169.774 454.223 170.287C455.075 170.801 455.772 171.295 456.314 171.779L455.588 172.883C455.046 172.399 454.349 171.885 453.497 171.353C452.645 170.81 451.735 170.278 450.767 169.755C449.799 169.232 448.85 168.786 447.911 168.408L448.637 167.517ZM483.993 202.886V204.126H453.71V202.886H483.993ZM480.624 189.25V203.7H479.385V190.528H473.382V203.7H472.104V190.528H466.141V203.7H464.902V190.528H459.025V203.7H457.747V189.25H480.624ZM479.259 169.048V184.475H459.199V169.048H479.259ZM460.429 176.079H478.02V170.287H460.429V176.079ZM460.429 183.236H478.02V177.357H460.429V183.236Z" fill="black"/>
<path d="M490.973 170.113V200.194H489.695V170.113H490.973ZM499.619 170.113V196.785H490.286V195.506H498.341V171.391H490.286V170.113H499.619ZM499.154 182.558V183.836H490.46V182.558H499.154ZM509.416 179.236C509.242 180.824 509.029 182.558 508.777 184.437C508.525 186.316 508.148 188.233 507.673 190.19C507.189 192.146 506.541 194.073 505.737 195.962C504.924 197.85 503.907 199.603 502.687 201.22C501.468 202.838 499.977 204.232 498.215 205.395C498.099 205.249 497.934 205.094 497.721 204.93C497.508 204.755 497.314 204.63 497.15 204.542C498.883 203.458 500.354 202.131 501.584 200.533C502.804 198.945 503.81 197.221 504.604 195.381C505.398 193.531 506.028 191.642 506.502 189.715C506.967 187.788 507.325 185.919 507.567 184.108C507.809 182.306 508.002 180.679 508.138 179.226H509.416V179.236ZM526.377 184.388V185.667H500.78V184.388H526.377ZM523.947 168.37C522.67 168.68 521.159 168.97 519.407 169.241C517.664 169.513 515.806 169.735 513.85 169.919C511.894 170.103 509.9 170.268 507.886 170.413C505.873 170.559 503.936 170.655 502.097 170.713C502.068 170.568 502.01 170.384 501.923 170.161C501.836 169.939 501.748 169.764 501.671 169.648C503.491 169.561 505.398 169.445 507.402 169.29C509.406 169.135 511.381 168.961 513.327 168.777C515.273 168.592 517.083 168.379 518.758 168.137C520.433 167.895 521.856 167.634 523.018 167.353L523.957 168.379L523.947 168.37ZM525.438 178.335V179.614H502.136V178.335H525.438ZM521.692 189.754L521.992 189.667L522.805 190.131C521.779 193.085 520.356 195.574 518.526 197.589C516.696 199.603 514.566 201.24 512.156 202.489C509.745 203.739 507.141 204.736 504.362 205.472C504.333 205.356 504.266 205.24 504.169 205.114C504.072 204.988 503.965 204.862 503.869 204.726C503.772 204.6 503.665 204.494 503.549 204.407C506.279 203.758 508.825 202.828 511.197 201.637C513.569 200.446 515.631 198.906 517.393 197.017C519.155 195.129 520.472 192.804 521.353 190.054V189.754H521.692ZM504.73 171.779C505.214 172.66 505.669 173.629 506.115 174.675C506.55 175.73 506.87 176.611 507.073 177.318L505.921 177.783C505.718 177.018 505.398 176.098 504.963 175.014C504.517 173.938 504.072 172.951 503.617 172.069L504.721 171.769L504.73 171.779ZM507.635 190.267C508.68 192.649 510.142 194.79 512.001 196.678C513.86 198.567 516.057 200.155 518.584 201.453C521.111 202.741 523.88 203.69 526.891 204.291C526.716 204.436 526.542 204.62 526.358 204.862C526.174 205.104 526.019 205.327 525.913 205.521C521.401 204.494 517.432 202.712 514.005 200.175C510.578 197.637 508.032 194.47 506.357 190.693L507.635 190.267ZM521.818 189.754V190.993H506.947V189.754H521.818ZM512.611 170.878C512.921 171.876 513.221 172.941 513.501 174.074C513.782 175.207 513.985 176.147 514.102 176.883L512.824 177.27C512.708 176.476 512.533 175.488 512.291 174.307C512.049 173.125 511.768 172.04 511.459 171.043L512.611 170.868V170.878ZM523.521 171.353C522.786 172.689 521.953 174.103 521.033 175.595C520.114 177.086 519.233 178.374 518.41 179.449L517.219 178.849C517.761 178.142 518.332 177.309 518.942 176.36C519.552 175.411 520.143 174.442 520.714 173.464C521.285 172.486 521.759 171.595 522.166 170.801L523.531 171.353H523.521Z" fill="black"/>
<path d="M546.65 173.309L546.824 173.222L547.676 173.474C547.017 179.042 545.943 183.904 544.442 188.049C542.932 192.194 541.122 195.681 538.992 198.509C536.862 201.337 534.529 203.603 532.002 205.307C531.944 205.191 531.866 205.075 531.77 204.968C531.673 204.852 531.557 204.736 531.431 204.63C531.305 204.513 531.179 204.416 531.073 204.329C533.512 202.77 535.787 200.601 537.888 197.831C539.989 195.061 541.79 191.671 543.281 187.671C544.771 183.662 545.817 179.004 546.408 173.696V173.309H546.659H546.65ZM546.863 173.309V174.549H531.828V173.309H546.863ZM534.635 181.919C536.058 183.197 537.472 184.572 538.895 186.035C540.318 187.497 541.673 188.998 542.961 190.528C544.249 192.059 545.41 193.54 546.437 194.964C547.463 196.388 548.286 197.695 548.905 198.886L547.84 199.739C547.211 198.547 546.388 197.221 545.352 195.778C544.316 194.325 543.164 192.833 541.906 191.303C540.638 189.773 539.311 188.253 537.898 186.761C536.494 185.27 535.081 183.885 533.657 182.606L534.635 181.928V181.919ZM569.139 177.996V179.275H548.992V177.996H569.139ZM552.1 184.814C552.807 185.841 553.494 186.945 554.143 188.136C554.791 189.328 555.372 190.49 555.866 191.613C556.36 192.737 556.728 193.734 556.95 194.615L555.76 195.129C555.527 194.247 555.179 193.24 554.695 192.107C554.211 190.974 553.649 189.802 553.01 188.592C552.371 187.381 551.694 186.267 550.987 185.25L552.09 184.824L552.1 184.814ZM563.514 203.051C563.514 203.729 563.388 204.213 563.127 204.504C562.875 204.784 562.498 204.998 562.023 205.143C561.568 205.259 560.833 205.317 559.826 205.337C558.819 205.346 557.386 205.356 555.547 205.356C555.518 205.24 555.469 205.114 555.401 204.968C555.334 204.823 555.266 204.678 555.208 204.523C555.15 204.368 555.092 204.232 555.034 204.116C556.534 204.145 557.851 204.155 558.974 204.155C560.097 204.155 560.823 204.136 561.171 204.116C561.539 204.087 561.81 204 561.985 203.864C562.159 203.719 562.236 203.448 562.236 203.051V166.956H563.514V203.051Z" fill="black"/>
<path d="M580.853 180.592V181.87H573.438V180.592H580.853ZM577.194 168.534C577.901 169.106 578.617 169.735 579.343 170.433C580.069 171.13 580.747 171.808 581.386 172.476C582.025 173.144 582.548 173.735 582.944 174.248L582.054 175.275C581.657 174.733 581.144 174.123 580.524 173.425C579.895 172.728 579.227 172.031 578.501 171.314C577.775 170.607 577.058 169.948 576.352 169.358L577.204 168.544L577.194 168.534ZM579.111 203.739C579.053 203.622 578.975 203.506 578.878 203.38C578.782 203.254 578.675 203.128 578.559 202.993C578.443 202.867 578.327 202.76 578.22 202.673C578.443 202.528 578.723 202.296 579.053 201.966C579.382 201.637 579.682 201.24 579.943 200.756C580.214 200.271 580.35 199.719 580.35 199.09V180.592H581.589V201.046C581.076 201.472 580.669 201.831 580.35 202.131C580.04 202.431 579.75 202.731 579.498 203.022C579.246 203.322 579.111 203.555 579.111 203.729V203.739ZM579.062 202.46L579.788 201.395L586.778 196.795C586.807 196.911 586.846 197.027 586.904 197.134C586.962 197.25 587.02 197.366 587.098 197.492C587.165 197.618 587.214 197.724 587.243 197.812C585.568 198.974 584.222 199.913 583.196 200.62C582.17 201.327 581.395 201.879 580.853 202.257C580.311 202.644 579.924 202.935 579.682 203.148C579.44 203.361 579.246 203.555 579.111 203.719L579.072 202.441L579.062 202.46ZM608.88 168.37C607.602 168.825 606.102 169.261 604.388 169.687C602.665 170.113 600.835 170.5 598.889 170.859C596.943 171.217 594.978 171.537 592.994 171.818C591.009 172.098 589.073 172.36 587.204 172.583C587.175 172.437 587.107 172.263 587.011 172.05C586.914 171.837 586.817 171.663 586.73 171.517C588.579 171.295 590.496 171.023 592.48 170.733C594.465 170.433 596.421 170.103 598.338 169.755C600.254 169.396 602.026 169.028 603.662 168.622C605.298 168.225 606.683 167.808 607.815 167.382L608.88 168.36V168.37ZM611.698 180.379V181.657H587.243V180.379H611.698ZM608.667 190.015V205.182H607.428V191.245H590.389V205.346H589.15V190.006H608.658L608.667 190.015ZM608.077 202.199V203.438H589.973V202.199H608.077ZM599.645 170.113V190.993H598.367V170.113H599.645Z" fill="black"/>
<path d="M627.672 168.873V170.113H618.94V205.395H617.662V168.873H627.672ZM627.672 168.873L627.885 168.786L628.737 169.387C628.059 171.062 627.294 172.863 626.462 174.8C625.62 176.737 624.797 178.578 623.974 180.34C625.794 182.219 626.994 183.953 627.595 185.541C628.195 187.129 628.485 188.64 628.485 190.054C628.485 190.964 628.369 191.826 628.146 192.63C627.914 193.444 627.546 194.034 627.043 194.402C626.791 194.577 626.491 194.712 626.152 194.809C625.813 194.906 625.445 194.983 625.048 195.042C624.051 195.129 623.064 195.129 622.067 195.042C622.038 194.867 621.989 194.674 621.921 194.441C621.854 194.218 621.747 194.005 621.602 193.802C622.202 193.831 622.754 193.85 623.286 193.87C623.809 193.889 624.284 193.87 624.71 193.85C625.31 193.821 625.804 193.676 626.2 193.424C626.597 193.143 626.878 192.679 627.033 192.039C627.188 191.4 627.265 190.742 627.265 190.054C627.265 188.717 626.936 187.274 626.288 185.705C625.629 184.146 624.38 182.413 622.541 180.505C623.025 179.507 623.49 178.51 623.945 177.502C624.4 176.495 624.835 175.498 625.261 174.52C625.687 173.541 626.084 172.592 626.452 171.682C626.82 170.772 627.149 169.919 627.43 169.125V168.873H627.682H627.672ZM654.247 184.35V185.628H629.24V184.35H654.247ZM652.969 172.67V173.909H630.392V172.67H652.969ZM650.626 190.102V205.269H649.348V191.332H633.461V205.433H632.183V190.093H650.626V190.102ZM650.336 201.986V203.225H632.997V201.986H650.336ZM634.701 174.888C635.301 176.195 635.833 177.619 636.298 179.168C636.763 180.718 637.072 182.045 637.218 183.149L636.027 183.488C635.882 182.355 635.582 180.999 635.136 179.439C634.681 177.88 634.168 176.447 633.607 175.139L634.71 174.888H634.701ZM640.451 166.665C640.935 167.721 641.4 168.844 641.855 170.055C642.31 171.265 642.62 172.263 642.794 173.057L641.729 173.483C641.526 172.602 641.206 171.556 640.771 170.326C640.325 169.106 639.87 167.973 639.386 166.917L640.451 166.665ZM649.987 175.401C649.561 176.427 649.097 177.541 648.603 178.742C648.109 179.953 647.606 181.115 647.093 182.238C646.579 183.362 646.095 184.33 645.64 185.153L644.537 184.727C645.021 183.875 645.514 182.878 646.028 181.725C646.541 180.573 647.025 179.401 647.48 178.19C647.935 176.98 648.312 175.895 648.632 174.926L649.997 175.391L649.987 175.401Z" fill="black"/>
<path d="M670.395 167.469C669.427 169.852 668.314 172.176 667.055 174.413C665.787 176.66 664.432 178.752 662.989 180.698C661.537 182.645 660.046 184.398 658.516 185.957C658.458 185.87 658.371 185.754 658.265 185.618C658.148 185.473 658.032 185.337 657.926 185.212C657.81 185.086 657.693 184.979 657.587 184.892C659.117 183.439 660.598 181.773 662.021 179.885C663.444 177.996 664.77 175.963 666 173.793C667.229 171.624 668.294 169.396 669.175 167.12L670.415 167.459L670.395 167.469ZM664.393 205.269V177.318L665.584 176.127L665.671 176.166V205.269H664.393ZM696.98 191.332V192.611H668.352V191.332H696.98ZM695.189 180.805V182.083H670.182V180.805H695.189ZM672.525 169.261C673.154 170.2 673.745 171.217 674.316 172.331C674.887 173.435 675.391 174.51 675.846 175.546C676.301 176.582 676.63 177.483 676.823 178.248L675.72 178.887C675.497 178.093 675.149 177.164 674.694 176.098C674.239 175.033 673.726 173.948 673.164 172.834C672.593 171.73 672.012 170.694 671.421 169.726L672.525 169.261ZM682.961 167.43V205.356H681.722V167.43H682.961ZM693.698 169.474C693.214 170.5 692.672 171.595 692.081 172.757C691.481 173.919 690.881 175.052 690.271 176.147C689.661 177.241 689.07 178.209 688.499 179.062L687.521 178.51C688.092 177.657 688.673 176.66 689.293 175.527C689.903 174.394 690.493 173.232 691.065 172.05C691.636 170.868 692.11 169.813 692.517 168.873L693.708 169.474H693.698Z" fill="black"/>
<path d="M703.921 175.139C703.863 176.195 703.747 177.377 703.563 178.694C703.379 180.011 703.146 181.328 702.856 182.635C702.575 183.943 702.246 185.105 701.878 186.132L700.639 185.744C701.007 184.776 701.336 183.662 701.617 182.403C701.897 181.134 702.13 179.856 702.323 178.548C702.507 177.241 702.643 176.05 702.73 174.965L703.921 175.139ZM708.345 166.956V205.269H707.067V166.956H708.345ZM710.988 173.609C711.53 174.578 712.024 175.624 712.479 176.766C712.934 177.9 713.263 178.858 713.457 179.623L712.392 180.263C712.16 179.439 711.821 178.442 711.366 177.26C710.911 176.079 710.427 175.013 709.913 174.045L710.978 173.619L710.988 173.609ZM739.402 181.105V182.345H713.418V181.105H739.402ZM718.104 193.589C718.104 194.78 718.036 196.107 717.891 197.55C717.746 199.003 717.475 200.446 717.078 201.879C716.681 203.312 716.071 204.639 715.248 205.859C715.219 205.743 715.151 205.627 715.035 205.501C714.919 205.375 714.802 205.259 714.696 205.162C714.58 205.065 714.464 204.988 714.357 204.93C715.093 203.797 715.645 202.567 715.993 201.24C716.352 199.923 716.584 198.596 716.7 197.279C716.816 195.962 716.874 194.732 716.874 193.589V185.667H718.113V193.589H718.104ZM738.163 170.752V171.992H714.696V170.752H738.163ZM737.234 175.74V176.979H715.596V175.74H737.234ZM735.569 191.245V192.524H717.465V191.245H735.569ZM735.743 197.085V198.363H717.465V197.085H735.743ZM735.995 185.667V186.906H717.504V185.667H735.995ZM726.875 166.956V181.444H725.597V166.956H726.875ZM736.421 203.264C736.421 203.777 736.343 204.155 736.188 204.416C736.033 204.668 735.753 204.852 735.356 204.968C734.901 205.085 734.223 205.143 733.332 205.162C732.442 205.172 731.222 205.182 729.692 205.182C729.663 205.036 729.595 204.852 729.499 204.629C729.402 204.397 729.295 204.203 729.179 204.029C730.486 204.058 731.609 204.068 732.548 204.068C733.487 204.068 734.097 204.058 734.378 204.029C734.688 204 734.901 203.932 735.017 203.835C735.133 203.739 735.191 203.554 735.191 203.303V185.657H736.43V203.254L736.421 203.264Z" fill="black"/>
<path d="M744.389 183.962C744.389 183.846 744.359 183.71 744.301 183.536C744.243 183.362 744.185 183.197 744.127 183.023C744.069 182.848 744.011 182.713 743.953 182.597C744.263 182.539 744.592 182.258 744.931 181.744C745.27 181.231 745.666 180.611 746.121 179.866C746.373 179.468 746.741 178.839 747.206 177.987C747.67 177.134 748.193 176.127 748.764 174.965C749.336 173.803 749.897 172.554 750.468 171.217C751.04 169.881 751.533 168.563 751.959 167.256L753.198 167.721C752.492 169.571 751.717 171.411 750.875 173.261C750.033 175.11 749.161 176.863 748.251 178.519C747.341 180.185 746.422 181.677 745.483 183.013V183.052C745.25 183.168 745.066 183.265 744.931 183.352C744.785 183.439 744.66 183.526 744.543 183.633C744.427 183.73 744.369 183.836 744.369 183.953L744.389 183.962ZM744.05 200.756C745.153 200.504 746.422 200.213 747.845 199.884C749.268 199.555 750.788 199.206 752.405 198.819C754.021 198.431 755.667 198.044 757.342 197.647L757.429 198.838C755.067 199.38 752.743 199.923 750.439 200.475C748.135 201.027 746.112 201.53 744.35 201.986L744.05 200.746V200.756ZM744.689 194.063C744.689 193.947 744.66 193.812 744.602 193.637C744.543 193.463 744.485 193.298 744.427 193.124C744.369 192.95 744.301 192.814 744.214 192.698C744.611 192.64 745.066 192.349 745.579 191.826C746.092 191.303 746.654 190.645 747.283 189.841C747.622 189.444 748.145 188.795 748.861 187.885C749.568 186.974 750.362 185.899 751.223 184.669C752.085 183.43 752.976 182.103 753.886 180.66C754.796 179.226 755.628 177.783 756.403 176.331L757.594 176.931C755.774 179.943 753.866 182.878 751.862 185.735C749.858 188.592 747.854 191.071 745.831 193.172V193.211C745.599 193.298 745.415 193.385 745.26 193.463C745.105 193.55 744.969 193.637 744.853 193.744C744.737 193.841 744.679 193.947 744.679 194.063H744.689ZM744.389 182.858L745.328 182.306L753.721 181.241C753.692 181.415 753.683 181.599 753.702 181.812C753.712 182.025 753.741 182.19 753.77 182.306C751.814 182.587 750.236 182.829 749.065 183.013C747.883 183.197 746.983 183.352 746.363 183.459C745.734 183.575 745.289 183.662 745.018 183.739C744.747 183.807 744.543 183.885 744.398 183.972V182.868L744.389 182.858ZM744.689 192.95L745.628 192.31L756.451 190.219C756.451 190.364 756.451 190.528 756.471 190.732C756.48 190.935 756.509 191.1 756.538 191.245C754.012 191.788 751.988 192.214 750.468 192.543C748.948 192.872 747.806 193.124 747.041 193.308C746.276 193.492 745.725 193.647 745.405 193.754C745.076 193.87 744.844 193.967 744.698 194.054V192.95H744.689ZM780.509 170.026C777.924 174.771 774.691 178.955 770.818 182.577C766.946 186.199 762.715 189.221 758.146 191.633C758.087 191.545 758 191.439 757.865 191.313C757.739 191.187 757.613 191.061 757.478 190.926C757.352 190.8 757.226 190.693 757.119 190.606C760.217 189.105 763.141 187.294 765.89 185.192C768.64 183.091 771.167 180.727 773.452 178.093C775.736 175.469 777.692 172.631 779.309 169.59L780.499 170.016L780.509 170.026ZM782 180.805V182.083H757.545V180.805H782ZM775.698 172.709V173.948H760.062V172.709H775.698ZM779.018 187.371V205.056H777.779V188.611H764.487V205.191H763.248V187.381H779.009L779.018 187.371ZM778.418 194.654V195.894H763.935V194.654H778.418ZM778.418 202.034V203.274H763.935V202.034H778.418ZM769.134 166.956V181.444H767.895V166.956H769.134Z" fill="black"/>
<path d="M249.456 242.971C249.185 243.485 248.836 243.988 248.41 244.502C247.984 245.005 247.51 245.47 247.006 245.887C246.503 246.303 245.99 246.652 245.477 246.933C245.438 246.865 245.39 246.778 245.331 246.69C245.264 246.594 245.196 246.526 245.128 246.477C245.632 246.245 246.125 245.935 246.629 245.538C247.132 245.141 247.587 244.705 248.013 244.221C248.439 243.737 248.778 243.252 249.03 242.749L249.446 242.971H249.456ZM252.108 248.182L252.234 248.143L252.515 248.298C252.166 249.499 251.624 250.516 250.898 251.349C250.172 252.182 249.34 252.86 248.391 253.383C247.442 253.896 246.455 254.303 245.438 254.574C245.419 254.506 245.37 254.429 245.312 254.341C245.254 254.254 245.196 254.186 245.138 254.138C246.125 253.896 247.084 253.528 248.004 253.044C248.923 252.559 249.746 251.92 250.453 251.136C251.16 250.351 251.682 249.402 252.002 248.298V248.172H252.108V248.182ZM253.377 242.536V243.039H245.148V242.536H253.377ZM252.244 248.182V248.705H245.554V248.182H252.244ZM246.455 239.708C246.706 240.066 246.948 240.463 247.181 240.899C247.403 241.335 247.568 241.703 247.655 242.003L247.239 242.197C247.142 241.887 246.987 241.509 246.755 241.064C246.532 240.618 246.29 240.221 246.029 239.863L246.445 239.708H246.455ZM246.6 250.836C246.842 250.487 247.093 250.09 247.335 249.654C247.578 249.218 247.82 248.753 248.042 248.288C248.265 247.814 248.449 247.378 248.604 246.952L249.088 247.058C248.923 247.475 248.73 247.92 248.507 248.395C248.284 248.87 248.052 249.315 247.81 249.751C247.568 250.177 247.345 250.555 247.142 250.884L246.6 250.845V250.836ZM247.016 250.467C247.597 250.681 248.207 250.932 248.846 251.223C249.485 251.523 250.085 251.823 250.656 252.124C251.227 252.424 251.692 252.714 252.07 252.976L251.653 253.363C251.295 253.092 250.83 252.811 250.259 252.501C249.688 252.191 249.088 251.891 248.449 251.591C247.81 251.291 247.19 251.039 246.6 250.836L247.016 250.467ZM249.562 239.117V246.487H249.039V239.117H249.562ZM249.456 243.078C249.611 243.175 249.843 243.33 250.162 243.543C250.482 243.756 250.83 243.988 251.198 244.231C251.566 244.473 251.905 244.705 252.215 244.918C252.525 245.131 252.738 245.286 252.873 245.383L252.525 245.838C252.389 245.712 252.166 245.538 251.876 245.306C251.576 245.083 251.256 244.841 250.898 244.579C250.54 244.327 250.211 244.085 249.901 243.862C249.591 243.64 249.339 243.475 249.156 243.378L249.465 243.078H249.456ZM252.66 239.853C252.438 240.26 252.186 240.676 251.905 241.122C251.624 241.558 251.353 241.935 251.111 242.245L250.743 242.022C250.908 241.809 251.072 241.567 251.256 241.277C251.44 240.986 251.615 240.696 251.779 240.395C251.944 240.095 252.089 239.834 252.205 239.601L252.66 239.863V239.853ZM259.263 242.952C258.963 244.918 258.537 246.642 258.004 248.133C257.462 249.625 256.746 250.923 255.845 252.017C254.945 253.111 253.812 254.051 252.437 254.835C252.418 254.797 252.379 254.758 252.341 254.709C252.302 254.661 252.254 254.603 252.205 254.554C252.157 254.506 252.108 254.458 252.07 254.429C253.425 253.722 254.548 252.831 255.429 251.765C256.31 250.7 257.017 249.431 257.539 247.959C258.062 246.487 258.459 244.802 258.74 242.894L259.263 242.962V242.952ZM255.903 239.466C255.729 240.512 255.516 241.519 255.274 242.468C255.032 243.427 254.742 244.318 254.412 245.151C254.083 245.983 253.706 246.719 253.289 247.378C253.27 247.359 253.222 247.32 253.164 247.281C253.105 247.242 253.047 247.204 252.98 247.165C252.912 247.126 252.863 247.097 252.815 247.078C253.26 246.458 253.638 245.741 253.967 244.928C254.296 244.105 254.577 243.233 254.809 242.284C255.051 241.344 255.245 240.376 255.39 239.369L255.894 239.456L255.903 239.466ZM255.032 243.281C255.313 244.947 255.7 246.506 256.213 247.959C256.717 249.422 257.356 250.69 258.14 251.775C258.914 252.86 259.844 253.693 260.909 254.254C260.841 254.303 260.773 254.361 260.696 254.438C260.628 254.516 260.57 254.584 260.521 254.661C259.437 254.032 258.517 253.16 257.743 252.046C256.968 250.932 256.329 249.635 255.816 248.153C255.303 246.671 254.906 245.073 254.616 243.369L255.032 243.281ZM260.483 242.671V243.175H254.945V242.671H260.483Z" fill="black"/>
<path d="M262.225 248.811C262.884 248.589 263.697 248.318 264.646 247.988C265.594 247.659 266.572 247.31 267.56 246.952L267.647 247.456C266.727 247.795 265.817 248.124 264.907 248.463C263.997 248.792 263.174 249.092 262.458 249.363L262.235 248.821L262.225 248.811ZM267.647 242.846V243.369H262.4V242.846H267.647ZM265.449 254.002C265.449 254.235 265.41 254.4 265.323 254.506C265.246 254.613 265.12 254.69 264.955 254.729C264.801 254.777 264.578 254.806 264.268 254.816C263.958 254.826 263.532 254.826 262.99 254.816C262.98 254.758 262.951 254.68 262.913 254.593C262.874 254.496 262.826 254.409 262.777 254.332C263.223 254.341 263.61 254.351 263.949 254.351C264.287 254.351 264.51 254.351 264.607 254.332C264.713 254.332 264.791 254.312 264.839 254.264C264.888 254.216 264.917 254.128 264.917 254.002V239.136H265.44V254.002H265.449ZM269.215 245.151C269.215 245.858 269.196 246.632 269.147 247.456C269.099 248.288 269.012 249.131 268.867 249.983C268.731 250.836 268.518 251.678 268.228 252.492C267.947 253.315 267.56 254.07 267.085 254.768C267.047 254.729 267.008 254.7 266.95 254.671C266.892 254.642 266.843 254.613 266.785 254.574C266.727 254.535 266.679 254.516 266.63 254.506C267.105 253.809 267.482 253.063 267.753 252.279C268.024 251.484 268.228 250.681 268.373 249.848C268.518 249.015 268.605 248.201 268.644 247.397C268.683 246.594 268.702 245.848 268.702 245.151V239.96H269.206V245.151H269.215ZM277.493 239.95V243.911H268.973V243.407H276.97V240.463H268.973V239.96H277.493V239.95ZM278.209 246.216V246.739H269.109V246.216H278.209ZM277.531 249.383V254.748H277.009V249.886H270.512V254.855H269.99V249.383H277.531ZM277.115 253.431V253.935H270.27V253.431H277.115ZM273.959 243.804V249.596H273.436V243.804H273.959Z" fill="black"/>
<path d="M287.135 243.369C286.651 244.55 286.041 245.693 285.315 246.787C284.589 247.882 283.795 248.87 282.933 249.751C282.072 250.632 281.191 251.349 280.281 251.891C280.261 251.843 280.223 251.794 280.174 251.746C280.126 251.697 280.077 251.649 280.039 251.601C279.99 251.552 279.942 251.513 279.903 251.475C280.813 250.971 281.694 250.293 282.556 249.431C283.417 248.569 284.202 247.601 284.928 246.516C285.644 245.431 286.235 244.327 286.69 243.185L287.145 243.359L287.135 243.369ZM295.238 243.088V243.611H280.252V243.088H295.238ZM292.498 250.729V251.252H282.962V250.729H292.498ZM287.968 239.156V254.826H287.445V239.156H287.968ZM288.703 243.252C289.158 244.415 289.749 245.528 290.475 246.603C291.201 247.678 292.014 248.637 292.915 249.48C293.815 250.322 294.744 250.981 295.713 251.455C295.664 251.494 295.616 251.533 295.577 251.581C295.529 251.63 295.49 251.678 295.441 251.727C295.403 251.775 295.364 251.833 295.325 251.872C294.357 251.349 293.428 250.652 292.537 249.78C291.646 248.908 290.833 247.93 290.097 246.836C289.362 245.741 288.752 244.599 288.268 243.398L288.703 243.243V243.252Z" fill="black"/>
<path d="M297.223 251.233C297.678 251.058 298.191 250.845 298.782 250.603C299.372 250.361 299.992 250.099 300.65 249.819C301.308 249.538 301.967 249.257 302.625 248.986L302.732 249.47C301.792 249.877 300.853 250.283 299.924 250.681C298.995 251.078 298.162 251.436 297.436 251.736L297.223 251.233ZM302.48 243.475V243.979H297.475V243.475H302.48ZM300.34 239.291V250.361H299.817V239.291H300.34ZM311.774 242.39L311.996 242.846L302.218 246.962L302.005 246.487L311.764 242.39H311.774ZM304.571 252.734C304.571 253.034 304.61 253.276 304.697 253.441C304.774 253.605 304.929 253.722 305.142 253.789C305.355 253.857 305.675 253.886 306.091 253.886H311.106C311.474 253.886 311.754 253.809 311.929 253.663C312.113 253.509 312.238 253.237 312.316 252.84C312.393 252.443 312.451 251.872 312.48 251.136C312.558 251.184 312.655 251.223 312.752 251.271C312.848 251.31 312.945 251.349 313.023 251.368C312.974 252.133 312.897 252.743 312.8 253.189C312.693 253.634 312.51 253.954 312.248 254.138C311.987 254.322 311.58 254.419 311.038 254.419H306.178C305.646 254.419 305.22 254.37 304.91 254.283C304.6 254.186 304.377 254.022 304.251 253.78C304.126 253.538 304.058 253.189 304.058 252.734V240.705H304.581V252.753L304.571 252.734ZM308.318 239.117V251.107H307.814V239.117H308.318ZM311.387 242.778L311.754 242.41L312.171 242.565L312.122 242.7C312.055 243.533 311.958 244.424 311.851 245.364C311.745 246.303 311.619 247.213 311.483 248.085C311.348 248.957 311.203 249.702 311.038 250.332L310.602 250.196C310.709 249.731 310.806 249.199 310.902 248.589C310.999 247.988 311.096 247.349 311.183 246.681C311.27 246.013 311.348 245.344 311.406 244.666C311.474 243.988 311.522 243.359 311.57 242.768H311.377L311.387 242.778Z" fill="black"/>
<path d="M321.387 239.272C321 240.531 320.516 241.771 319.925 243.01C319.335 244.25 318.628 245.412 317.805 246.506C316.982 247.601 316.043 248.55 314.978 249.363C314.959 249.325 314.92 249.286 314.881 249.238C314.843 249.189 314.794 249.141 314.746 249.102C314.698 249.054 314.659 249.015 314.62 248.976C315.414 248.385 316.13 247.707 316.779 246.952C317.428 246.197 318.009 245.393 318.531 244.531C319.044 243.669 319.499 242.787 319.887 241.867C320.274 240.957 320.593 240.037 320.855 239.127L321.378 239.262L321.387 239.272ZM330.071 241.422V241.926H315.085V241.422H330.071ZM317.989 246.109V254.787H317.486V246.109H317.989ZM330.468 249.121V249.625H319.47V249.121H330.468ZM328.784 244.482V245.005H321.077V244.482H328.784ZM325.26 253.915C325.26 254.157 325.221 254.341 325.134 254.458C325.056 254.574 324.911 254.661 324.698 254.719C324.476 254.768 324.137 254.787 323.662 254.787H321.755C321.736 254.719 321.697 254.642 321.658 254.554C321.62 254.467 321.571 254.38 321.513 254.303C321.997 254.312 322.433 254.322 322.82 254.332C323.207 254.332 323.527 254.332 323.788 254.332C324.05 254.332 324.234 254.312 324.35 254.303C324.514 254.293 324.621 254.254 324.66 254.206C324.708 254.157 324.727 254.061 324.727 253.935V247.446H325.25V253.915H325.26ZM328.726 244.482L328.832 244.463L329.2 244.686C328.851 245.083 328.445 245.47 327.98 245.848C327.515 246.226 327.031 246.584 326.538 246.913C326.034 247.242 325.56 247.533 325.095 247.775C325.047 247.717 324.989 247.659 324.931 247.601C324.873 247.543 324.805 247.494 324.747 247.446C325.211 247.223 325.686 246.952 326.179 246.632C326.673 246.313 327.119 245.974 327.545 245.625C327.97 245.267 328.329 244.928 328.619 244.608V244.482H328.745H328.726Z" fill="black"/>
<path d="M336.083 239.272C335.783 240.25 335.435 241.209 335.038 242.148C334.641 243.088 334.205 243.979 333.74 244.812C333.266 245.644 332.782 246.39 332.269 247.049C332.249 247.01 332.211 246.971 332.162 246.923C332.114 246.874 332.065 246.826 332.027 246.778C331.978 246.729 331.94 246.681 331.901 246.642C332.414 246.013 332.898 245.296 333.343 244.502C333.789 243.708 334.215 242.846 334.592 241.935C334.97 241.025 335.299 240.095 335.58 239.156L336.083 239.282V239.272ZM334.621 242.758L334.641 242.778V254.768H334.137V243.243L334.621 242.758ZM338 244.831V245.335H335.599V244.831H338ZM336.974 240.095C337.342 240.453 337.719 240.851 338.077 241.286C338.445 241.722 338.716 242.1 338.891 242.429L338.494 242.778C338.31 242.439 338.029 242.042 337.671 241.596C337.303 241.141 336.935 240.734 336.567 240.376L336.984 240.095H336.974ZM337.419 254.157C337.419 254.157 337.38 254.051 337.342 253.993L337.216 253.799C337.177 253.731 337.129 253.683 337.08 253.634C337.177 253.576 337.274 253.47 337.39 253.315C337.506 253.16 337.564 252.908 337.564 252.569V244.831H338.087V253.392C337.952 253.499 337.835 253.586 337.748 253.673C337.661 253.751 337.584 253.838 337.516 253.925C337.448 254.012 337.409 254.09 337.409 254.157H337.419ZM337.409 253.605L337.71 253.189L340.13 251.707C340.149 251.785 340.178 251.872 340.217 251.969C340.256 252.066 340.275 252.133 340.285 252.182C339.704 252.569 339.239 252.869 338.881 253.102C338.523 253.334 338.252 253.518 338.058 253.644C337.865 253.77 337.729 253.877 337.642 253.944C337.555 254.022 337.477 254.09 337.419 254.167L337.4 253.605H337.409ZM347.604 240.144C346.655 242.051 345.464 243.756 344.031 245.276C342.599 246.797 341.059 248.066 339.394 249.102C339.375 249.063 339.336 249.024 339.288 248.966C339.239 248.908 339.191 248.85 339.152 248.792C339.104 248.734 339.055 248.695 339.017 248.666C340.13 248.017 341.195 247.252 342.192 246.361C343.199 245.48 344.119 244.492 344.961 243.417C345.803 242.332 346.52 241.189 347.11 239.969L347.594 240.144H347.604ZM347.826 244.695V245.218H339.656V244.695H347.826ZM345.784 241.364V241.887H340.082V241.364H345.784ZM346.955 247.378V254.68H346.432V247.901H341.727V254.738H341.224V247.378H346.955ZM346.713 250.235V250.739H341.466V250.235H346.713ZM346.713 253.17V253.693H341.466V253.17H346.713ZM343.334 239.117V244.957H342.831V239.117H343.334Z" fill="black"/>
<path d="M358.389 246.981C358.389 247.252 358.321 247.494 358.186 247.717C358.05 247.94 357.876 248.124 357.653 248.259C357.431 248.395 357.179 248.463 356.908 248.463C356.637 248.463 356.395 248.395 356.172 248.259C355.949 248.124 355.765 247.95 355.63 247.717C355.494 247.494 355.427 247.243 355.427 246.981C355.427 246.72 355.494 246.448 355.63 246.235C355.765 246.013 355.94 245.838 356.172 245.703C356.395 245.567 356.646 245.499 356.908 245.499C357.169 245.499 357.44 245.567 357.653 245.703C357.876 245.838 358.05 246.013 358.186 246.235C358.321 246.458 358.389 246.71 358.389 246.981Z" fill="black"/>
<path d="M370.762 239.882V240.386H367.189V254.816H366.667V239.872H370.762V239.882ZM370.723 239.882L370.829 239.843L371.159 240.085C370.975 240.541 370.771 241.025 370.558 241.528C370.345 242.042 370.123 242.555 369.9 243.068C369.677 243.582 369.445 244.085 369.213 244.56C369.958 245.325 370.452 246.032 370.694 246.69C370.936 247.339 371.062 247.959 371.062 248.54C371.062 248.908 371.013 249.267 370.926 249.596C370.829 249.925 370.684 250.167 370.471 250.322C370.365 250.39 370.249 250.448 370.103 250.487C369.958 250.526 369.813 250.564 369.648 250.584C369.242 250.622 368.835 250.622 368.428 250.584C368.419 250.526 368.399 250.448 368.37 250.351C368.341 250.254 368.293 250.167 368.235 250.08C368.477 250.09 368.709 250.1 368.922 250.109C369.135 250.109 369.329 250.109 369.503 250.109C369.755 250.09 369.958 250.032 370.113 249.935C370.278 249.819 370.384 249.635 370.452 249.373C370.52 249.112 370.549 248.84 370.549 248.56C370.549 248.017 370.413 247.417 370.152 246.778C369.881 246.138 369.377 245.431 368.622 244.647C368.816 244.24 369.009 243.833 369.193 243.417C369.377 243.001 369.561 242.594 369.735 242.197C369.91 241.8 370.074 241.412 370.22 241.035C370.374 240.667 370.5 240.318 370.616 239.989V239.882H370.723ZM372.533 250.952C372.427 251.291 372.301 251.659 372.146 252.075C371.991 252.492 371.827 252.898 371.643 253.296C371.459 253.693 371.255 254.051 371.052 254.351L370.636 254.041C370.849 253.76 371.042 253.431 371.217 253.034C371.401 252.647 371.565 252.25 371.71 251.843C371.865 251.436 371.981 251.068 372.078 250.748L372.533 250.961V250.952ZM375.38 239.398C375.012 240.076 374.518 240.783 373.927 241.538C373.327 242.294 372.62 242.991 371.807 243.63C371.769 243.591 371.73 243.562 371.681 243.524C371.633 243.485 371.594 243.456 371.546 243.417C371.507 243.378 371.459 243.359 371.41 243.349C372.204 242.749 372.882 242.071 373.463 241.335C374.044 240.599 374.499 239.931 374.818 239.32L375.36 239.388L375.38 239.398ZM380.54 243.34V248.986H372.175V248.482H380.036V243.843H372.33V243.34H380.54ZM380.288 245.829V246.332H372.746V245.829H380.288ZM373.985 253.828C373.985 253.993 374.044 254.099 374.16 254.157C374.276 254.216 374.528 254.245 374.925 254.245H377.906C378.129 254.245 378.294 254.206 378.4 254.119C378.507 254.032 378.594 253.857 378.632 253.586C378.681 253.315 378.71 252.898 378.72 252.337C378.787 252.385 378.875 252.424 378.971 252.463C379.068 252.501 379.165 252.54 379.242 252.559C379.223 253.15 379.175 253.605 379.107 253.915C379.039 254.225 378.913 254.448 378.729 254.564C378.545 254.68 378.294 254.739 377.955 254.739H374.944C374.557 254.739 374.257 254.719 374.044 254.68C373.831 254.642 373.676 254.555 373.589 254.409C373.501 254.274 373.453 254.07 373.453 253.799V250.681H373.976V253.818L373.985 253.828ZM378.565 240.599V241.102H373.995L374.392 240.599H378.555H378.565ZM374.644 249.383C375.002 249.596 375.38 249.828 375.757 250.09C376.135 250.351 376.503 250.613 376.841 250.884C377.18 251.155 377.461 251.388 377.664 251.601L377.335 251.998C377.122 251.775 376.851 251.533 376.512 251.252C376.173 250.981 375.806 250.71 375.428 250.429C375.041 250.158 374.663 249.906 374.295 249.683L374.644 249.373V249.383ZM378.478 240.599L378.565 240.56L378.933 240.822C378.739 241.16 378.507 241.509 378.236 241.858C377.964 242.216 377.703 242.545 377.432 242.855C377.161 243.165 376.919 243.436 376.687 243.679C376.638 243.659 376.58 243.62 376.493 243.572C376.416 243.524 376.338 243.495 376.27 243.465C376.503 243.223 376.745 242.942 377.006 242.623C377.258 242.303 377.509 241.974 377.752 241.635C377.994 241.296 378.197 240.986 378.361 240.715V240.589H378.487L378.478 240.599ZM379.33 250.468C379.659 250.816 379.968 251.194 380.259 251.61C380.559 252.027 380.82 252.434 381.072 252.831C381.314 253.228 381.498 253.596 381.634 253.915L381.159 254.157C381.043 253.818 380.869 253.45 380.627 253.053C380.385 252.656 380.123 252.25 379.823 251.833C379.523 251.417 379.213 251.039 378.894 250.69L379.33 250.468Z" fill="black"/>
<path d="M387.471 244.366C387.258 244.986 387.007 245.615 386.697 246.274C386.387 246.933 386.048 247.572 385.69 248.192C385.322 248.811 384.944 249.393 384.567 249.925C384.189 250.458 383.812 250.913 383.453 251.281C383.405 251.223 383.347 251.155 383.289 251.068C383.221 250.991 383.163 250.923 383.105 250.874C383.463 250.526 383.831 250.1 384.209 249.586C384.586 249.073 384.954 248.521 385.322 247.92C385.69 247.32 386.019 246.7 386.329 246.061C386.629 245.422 386.881 244.802 387.074 244.192L387.471 244.347V244.366ZM390.676 244.047V244.55H383.666V244.047H390.676ZM390.279 239.853C389.766 240.076 389.156 240.279 388.43 240.483C387.713 240.676 386.958 240.86 386.164 241.015C385.37 241.17 384.615 241.306 383.879 241.422C383.87 241.364 383.841 241.296 383.802 241.209C383.763 241.131 383.725 241.054 383.686 240.996C384.402 240.87 385.157 240.725 385.932 240.57C386.706 240.415 387.452 240.24 388.149 240.047C388.846 239.853 389.417 239.659 389.853 239.446L390.269 239.843L390.279 239.853ZM387.558 240.386V254.768H387.055V240.386H387.558ZM387.471 244.744C387.587 244.86 387.752 245.044 387.955 245.286C388.159 245.528 388.401 245.799 388.652 246.109C388.904 246.41 389.156 246.71 389.407 247.02C389.659 247.32 389.882 247.591 390.075 247.843C390.269 248.085 390.414 248.269 390.511 248.385L390.124 248.782C390.008 248.589 389.814 248.308 389.553 247.959C389.282 247.611 388.991 247.243 388.681 246.845C388.372 246.448 388.071 246.08 387.791 245.751C387.51 245.412 387.307 245.17 387.161 245.015L387.462 244.754L387.471 244.744ZM390.134 253.634C390.124 253.576 390.104 253.518 390.085 253.45C390.066 253.383 390.037 253.315 390.017 253.247C389.998 253.179 389.969 253.121 389.95 253.073C390.075 253.024 390.25 252.743 390.463 252.24C390.676 251.727 390.908 251.116 391.15 250.409C391.257 250.138 391.392 249.741 391.566 249.199C391.741 248.656 391.934 248.027 392.157 247.291C392.38 246.555 392.602 245.761 392.825 244.899C393.048 244.037 393.27 243.156 393.483 242.235C393.696 241.325 393.88 240.415 394.035 239.524L394.577 239.592C394.345 240.754 394.083 241.945 393.803 243.156C393.522 244.366 393.212 245.577 392.883 246.768C392.554 247.959 392.205 249.102 391.837 250.196C391.47 251.291 391.092 252.288 390.695 253.199V253.218C390.627 253.237 390.559 253.266 390.501 253.296C390.443 253.325 390.385 253.354 390.337 253.392C390.288 253.431 390.24 253.46 390.201 253.509C390.163 253.547 390.143 253.596 390.143 253.644L390.134 253.634ZM390.134 253.17L390.608 252.889L397.975 251.775C397.966 251.852 397.956 251.94 397.975 252.036C397.975 252.133 397.985 252.201 398.004 252.25C396.62 252.472 395.468 252.656 394.558 252.802C393.648 252.947 392.902 253.063 392.351 253.16C391.799 253.257 391.373 253.325 391.082 253.383C390.782 253.441 390.569 253.489 390.443 253.528C390.317 253.567 390.221 253.605 390.143 253.644V253.17H390.134ZM395.642 246.313C395.952 246.933 396.271 247.581 396.601 248.269C396.93 248.957 397.24 249.635 397.54 250.313C397.84 250.991 398.111 251.639 398.363 252.25C398.614 252.86 398.808 253.402 398.953 253.867L398.469 254.08C398.314 253.615 398.121 253.073 397.879 252.463C397.636 251.843 397.365 251.194 397.065 250.506C396.765 249.819 396.455 249.131 396.136 248.443C395.807 247.756 395.487 247.107 395.177 246.497L395.652 246.322L395.642 246.313Z" fill="black"/>
<path d="M416.089 246.226V246.749H401.325V246.226H416.089ZM412.788 244.473C412.507 246.09 412.091 247.475 411.529 248.637C410.968 249.799 410.251 250.777 409.38 251.572C408.499 252.366 407.444 253.024 406.214 253.538C404.985 254.051 403.552 254.477 401.906 254.816C401.887 254.777 401.848 254.738 401.8 254.68C401.751 254.622 401.703 254.564 401.654 254.516C401.606 254.467 401.548 254.419 401.509 254.39C403.174 254.09 404.617 253.693 405.837 253.199C407.066 252.705 408.102 252.066 408.964 251.291C409.825 250.516 410.522 249.557 411.055 248.424C411.587 247.291 411.994 245.945 412.255 244.366L412.778 244.473H412.788ZM415.46 241.257V244.434H414.956V241.78H402.342V244.434H401.838V241.257H415.469H415.46ZM403.639 249.528C403.968 249.112 404.307 248.627 404.675 248.075C405.043 247.523 405.401 246.942 405.759 246.332C406.117 245.722 406.447 245.112 406.766 244.511C407.086 243.911 407.347 243.34 407.57 242.807L408.073 242.913C407.841 243.475 407.57 244.056 407.25 244.657C406.931 245.257 406.601 245.867 406.253 246.458C405.895 247.058 405.546 247.62 405.207 248.153C404.868 248.686 404.539 249.141 404.239 249.538H403.649L403.639 249.528ZM404.026 249.102C405.062 249.412 406.127 249.78 407.211 250.187C408.305 250.603 409.37 251.039 410.426 251.504C411.481 251.969 412.459 252.443 413.359 252.927C414.269 253.412 415.043 253.877 415.692 254.332L415.237 254.806C414.608 254.361 413.853 253.896 412.962 253.412C412.071 252.927 411.103 252.443 410.048 251.969C408.993 251.494 407.918 251.049 406.824 250.622C405.73 250.206 404.656 249.838 403.629 249.528L404.017 249.112L404.026 249.102ZM407.996 239.098C408.238 239.456 408.489 239.863 408.751 240.298C409.012 240.744 409.206 241.102 409.332 241.383L408.915 241.625C408.76 241.325 408.567 240.947 408.315 240.492C408.063 240.037 407.821 239.63 407.579 239.253L407.996 239.098Z" fill="black"/>
<path d="M426.264 239.814C425.838 240.405 425.315 241.015 424.715 241.645C424.115 242.274 423.466 242.894 422.779 243.504C422.091 244.114 421.394 244.686 420.687 245.209C419.981 245.732 419.303 246.177 418.664 246.555C418.616 246.487 418.558 246.41 418.499 246.332C418.441 246.255 418.364 246.187 418.296 246.138C418.935 245.79 419.613 245.364 420.32 244.86C421.026 244.356 421.723 243.804 422.42 243.204C423.108 242.604 423.756 241.993 424.347 241.364C424.937 240.734 425.441 240.134 425.867 239.553L426.264 239.834V239.814ZM433.525 253.78V254.283H418.693V253.78H433.525ZM431.685 249.538V250.041H420.465V249.538H431.685ZM431.143 245.674V246.197H421.142V245.674H431.143ZM426.225 239.533V240.056H421.675V239.533H426.225ZM426.37 239.533C426.816 240.192 427.329 240.841 427.919 241.47C428.51 242.1 429.149 242.691 429.836 243.252C430.523 243.814 431.211 244.327 431.908 244.783C432.605 245.238 433.283 245.615 433.931 245.916C433.893 245.954 433.854 245.993 433.796 246.042C433.747 246.09 433.689 246.138 433.651 246.177C433.602 246.226 433.563 246.274 433.525 246.313C432.663 245.896 431.772 245.354 430.843 244.686C429.914 244.017 429.023 243.272 428.181 242.458C427.338 241.635 426.612 240.792 425.993 239.921H425.712V239.533H426.361H426.37ZM426.293 245.829V254.061H425.77V245.829H426.293Z" fill="black"/>
<path d="M444.474 246.981C444.474 247.252 444.406 247.494 444.271 247.717C444.135 247.94 443.961 248.124 443.738 248.259C443.516 248.395 443.264 248.463 442.993 248.463C442.722 248.463 442.48 248.395 442.257 248.259C442.035 248.124 441.851 247.95 441.715 247.717C441.58 247.494 441.512 247.243 441.512 246.981C441.512 246.72 441.58 246.448 441.715 246.235C441.851 246.013 442.025 245.838 442.257 245.703C442.48 245.567 442.732 245.499 442.993 245.499C443.254 245.499 443.525 245.567 443.738 245.703C443.961 245.838 444.135 246.013 444.271 246.235C444.406 246.458 444.474 246.71 444.474 246.981Z" fill="black"/>
<path d="M452.451 250.448C452.906 250.351 453.42 250.254 454 250.138C454.581 250.022 455.201 249.896 455.869 249.761C456.527 249.625 457.195 249.489 457.873 249.354L457.912 249.828C456.963 250.041 456.014 250.235 455.085 250.429C454.155 250.622 453.332 250.797 452.606 250.961L452.451 250.458V250.448ZM458.028 242.1V242.623H452.713V242.1H458.028ZM458.047 245.916V246.419H453.042V245.916H458.047ZM458.328 247.349C458.328 247.872 458.28 248.472 458.173 249.15C458.067 249.828 457.863 250.535 457.544 251.252C457.234 251.969 456.76 252.656 456.14 253.305C455.52 253.954 454.688 254.516 453.642 255C453.594 254.942 453.536 254.874 453.468 254.787C453.4 254.709 453.332 254.632 453.274 254.574C454.097 254.216 454.785 253.789 455.336 253.315C455.888 252.831 456.334 252.317 456.663 251.785C456.992 251.242 457.244 250.7 457.408 250.158C457.573 249.615 457.679 249.092 457.728 248.608C457.776 248.124 457.805 247.698 457.805 247.339V239.233H458.328V247.359V247.349ZM462.084 239.224V254.826H461.581V239.224H462.084ZM467.109 245.935V246.439H461.862V245.935H467.109ZM467.719 249.857V250.38H461.862V249.857H467.719ZM467.419 242.119V242.642H461.881V242.119H467.419Z" fill="black"/>
<path d="M485 240.211V240.715H470.226V240.211H485ZM471.669 251.475C471.669 252.182 471.872 252.695 472.288 253.005C472.705 253.315 473.363 253.48 474.283 253.48H482.25C482.492 253.48 482.773 253.479 483.083 253.46C483.393 253.45 483.703 253.431 483.993 253.421C484.283 253.402 484.506 253.383 484.671 253.344C484.68 253.402 484.7 253.47 484.719 253.547C484.738 253.625 484.758 253.693 484.768 253.751C484.787 253.809 484.797 253.857 484.806 253.886C484.709 253.906 484.545 253.925 484.303 253.944C484.061 253.964 483.761 253.973 483.412 253.983C483.064 253.983 482.686 253.983 482.279 253.983H474.351C473.644 253.983 473.053 253.896 472.569 253.731C472.095 253.567 471.737 253.286 471.495 252.908C471.253 252.53 471.136 252.036 471.136 251.436V240.434H471.659V251.465L471.669 251.475ZM484.409 247V247.523H472.25V247H484.409ZM475.822 241.509C475.493 242.361 475.067 243.146 474.534 243.872C474.002 244.599 473.431 245.218 472.831 245.732C472.792 245.712 472.753 245.674 472.695 245.635C472.637 245.596 472.589 245.557 472.53 245.509C472.472 245.47 472.424 245.431 472.376 245.412C472.995 244.928 473.557 244.327 474.079 243.63C474.593 242.933 475.009 242.187 475.309 241.383L475.832 241.509H475.822ZM478.436 246.197C478.436 246.7 478.388 247.233 478.291 247.804C478.194 248.376 477.981 248.947 477.642 249.518C477.313 250.09 476.8 250.652 476.122 251.184C475.435 251.717 474.505 252.211 473.334 252.666C473.315 252.618 473.276 252.569 473.237 252.521C473.198 252.472 473.16 252.414 473.111 252.366C473.073 252.317 473.034 252.269 472.995 252.24C474.147 251.823 475.048 251.359 475.716 250.865C476.374 250.361 476.868 249.848 477.177 249.305C477.487 248.763 477.691 248.23 477.778 247.698C477.865 247.165 477.913 246.671 477.913 246.206V243.485H478.436V246.206V246.197ZM483.538 243.281V243.804H474.438V243.281H483.538ZM478.785 248.008C479.356 248.414 479.937 248.86 480.537 249.363C481.137 249.857 481.699 250.342 482.221 250.826C482.744 251.31 483.17 251.746 483.509 252.124L483.054 252.492C482.725 252.104 482.308 251.668 481.786 251.184C481.263 250.7 480.701 250.206 480.111 249.702C479.52 249.199 478.939 248.744 478.368 248.327L478.785 248.017V248.008Z" fill="black"/>
<path d="M486.742 249.422C487.158 249.189 487.662 248.899 488.233 248.54C488.804 248.182 489.395 247.814 490.005 247.436L490.131 247.872C489.608 248.211 489.085 248.55 488.553 248.879C488.02 249.218 487.526 249.528 487.062 249.819L486.752 249.422H486.742ZM487.43 242.449C487.662 242.778 487.904 243.126 488.146 243.495C488.388 243.863 488.62 244.221 488.824 244.57C489.037 244.908 489.201 245.209 489.327 245.451L488.959 245.712C488.824 245.441 488.64 245.131 488.427 244.783C488.214 244.424 487.981 244.066 487.749 243.688C487.507 243.31 487.275 242.962 487.042 242.633L487.43 242.458V242.449ZM490.286 246.439C490.286 247.088 490.256 247.785 490.189 248.511C490.121 249.247 490.005 249.983 489.821 250.729C489.637 251.475 489.366 252.201 489.008 252.908C488.649 253.615 488.175 254.264 487.575 254.864C487.555 254.816 487.517 254.777 487.468 254.739C487.42 254.7 487.371 254.661 487.333 254.613C487.284 254.574 487.236 254.535 487.197 254.516C487.778 253.935 488.243 253.305 488.582 252.627C488.92 251.949 489.182 251.252 489.346 250.545C489.511 249.838 489.627 249.131 489.685 248.424C489.743 247.717 489.772 247.058 489.772 246.429V241.393H490.276V246.429L490.286 246.439ZM502.639 241.403V241.926H490.092V241.403H502.639ZM501.332 244.434V244.938H491.786V244.434H501.332ZM496.975 253.886C496.975 254.109 496.946 254.274 496.878 254.38C496.811 254.487 496.685 254.574 496.482 254.632C496.288 254.68 495.978 254.709 495.562 254.719C495.145 254.729 494.603 254.739 493.916 254.739C493.906 254.661 493.877 254.574 493.829 254.477C493.78 254.38 493.732 254.293 493.693 254.216C494.11 254.225 494.487 254.235 494.807 254.245C495.136 254.245 495.407 254.245 495.63 254.245C495.852 254.245 496.017 254.225 496.114 254.216C496.249 254.206 496.346 254.177 496.394 254.138C496.443 254.099 496.462 254.022 496.462 253.906V247.611H496.966V253.886H496.975ZM495.804 239.078C495.997 239.475 496.191 239.901 496.375 240.376C496.559 240.851 496.685 241.248 496.762 241.587L496.239 241.742C496.172 241.403 496.046 240.996 495.881 240.521C495.717 240.047 495.533 239.611 495.329 239.214L495.804 239.078ZM501.351 244.434L501.477 244.385L501.893 244.686C501.448 245.102 500.945 245.519 500.373 245.925C499.802 246.332 499.202 246.71 498.592 247.059C497.972 247.407 497.392 247.707 496.849 247.969C496.801 247.911 496.743 247.853 496.675 247.785C496.607 247.717 496.54 247.669 496.482 247.62C497.014 247.378 497.575 247.088 498.176 246.749C498.766 246.41 499.337 246.051 499.87 245.664C500.412 245.277 500.857 244.918 501.225 244.57V244.444H501.361L501.351 244.434Z" fill="black"/>
<path d="M508.602 245.344L508.728 245.325L509.038 245.431C508.728 247.775 508.186 249.722 507.431 251.271C506.676 252.821 505.775 254.002 504.73 254.826C504.71 254.787 504.672 254.748 504.614 254.7C504.556 254.651 504.507 254.603 504.459 254.554C504.41 254.506 504.362 254.467 504.313 254.438C505.359 253.644 506.25 252.511 506.976 251.01C507.702 249.509 508.205 247.669 508.476 245.47V245.335H508.602V245.344ZM508.699 240.337V240.86H504.691V240.337H508.699ZM505.253 246.177C505.253 246.177 505.214 246.08 505.185 246.013C505.146 245.945 505.117 245.877 505.088 245.809C505.059 245.741 505.03 245.683 504.991 245.654C505.127 245.635 505.291 245.528 505.466 245.354C505.64 245.18 505.804 244.967 505.969 244.705C506.095 244.54 506.308 244.24 506.598 243.795C506.889 243.349 507.198 242.826 507.528 242.235C507.857 241.645 508.157 241.044 508.409 240.444V240.376L508.651 240.221L509.067 240.463C508.535 241.499 507.983 242.478 507.411 243.417C506.84 244.356 506.288 245.151 505.737 245.819V245.838C505.64 245.877 505.562 245.906 505.495 245.945C505.427 245.983 505.369 246.022 505.32 246.061C505.272 246.1 505.253 246.148 505.253 246.197V246.177ZM505.64 247.698C505.998 248.976 506.472 250.012 507.073 250.816C507.663 251.62 508.36 252.24 509.173 252.676C509.977 253.111 510.887 253.412 511.904 253.576C512.91 253.741 514.014 253.818 515.195 253.818H520.094C520.094 253.818 520.026 253.906 519.987 253.964C519.949 254.032 519.92 254.09 519.9 254.157C519.881 254.225 519.861 254.274 519.852 254.322H515.195C513.927 254.322 512.765 254.235 511.72 254.061C510.664 253.886 509.725 253.567 508.883 253.111C508.05 252.656 507.324 252.007 506.705 251.165C506.085 250.332 505.591 249.238 505.204 247.901L505.64 247.688V247.698ZM508.631 245.344V245.848H505.533L505.775 245.344H508.631ZM519.891 243.088V243.611H509.125V243.088H519.891ZM519.784 250.235V250.739H509.309V250.235H519.784ZM519.039 247.833V248.337H510.103V247.833H519.039ZM518.448 240.812V245.993H510.277V245.47H517.925V241.325H510.432V240.821H518.448V240.812ZM514.508 239.117V253.024H514.004V239.117H514.508Z" fill="black"/>
<path d="M525.07 244.695V245.218H521.827V244.695H525.07ZM523.618 239.814C523.909 240.047 524.199 240.308 524.499 240.589C524.799 240.87 525.07 241.151 525.332 241.422C525.593 241.693 525.796 241.935 525.951 242.148L525.603 242.565C525.438 242.342 525.225 242.09 524.964 241.809C524.702 241.528 524.422 241.238 524.131 240.947C523.831 240.657 523.541 240.386 523.25 240.144L523.618 239.814ZM524.422 254.235C524.422 254.235 524.364 254.138 524.315 254.09C524.267 254.041 524.218 253.983 524.18 253.935C524.131 253.886 524.083 253.848 524.044 253.818C524.141 253.722 524.257 253.557 524.422 253.305C524.577 253.053 524.654 252.734 524.654 252.337V244.705H525.157V253.141C525.061 253.257 524.983 253.354 524.906 253.441C524.828 253.528 524.751 253.625 524.683 253.722C524.606 253.818 524.548 253.915 524.499 254.012C524.451 254.109 524.431 254.177 524.431 254.235H524.422ZM524.402 253.712L524.702 253.257L527.539 251.378C527.558 251.446 527.597 251.523 527.636 251.601C527.675 251.678 527.704 251.746 527.733 251.794C527.036 252.279 526.484 252.676 526.068 252.966C525.651 253.257 525.341 253.48 525.119 253.634C524.896 253.789 524.741 253.915 524.644 254.002C524.548 254.09 524.48 254.167 524.422 254.235L524.402 253.712ZM536.407 240.182C536.117 241.867 535.739 243.446 535.284 244.928C534.829 246.4 534.229 247.756 533.493 248.995C532.757 250.235 531.828 251.349 530.714 252.337C529.601 253.325 528.236 254.167 526.619 254.864C526.6 254.816 526.561 254.768 526.523 254.729C526.484 254.68 526.445 254.632 526.397 254.593C526.358 254.545 526.319 254.506 526.28 254.467C527.888 253.78 529.233 252.957 530.327 251.988C531.421 251.02 532.331 249.925 533.057 248.705C533.774 247.485 534.355 246.158 534.8 244.715C535.245 243.272 535.604 241.732 535.884 240.095L536.407 240.202V240.182ZM528.12 240.376C528.536 242.71 529.136 244.812 529.901 246.69C530.676 248.56 531.692 250.158 532.961 251.465C534.229 252.782 535.807 253.77 537.704 254.429C537.656 254.467 537.608 254.506 537.569 254.555C537.52 254.603 537.472 254.661 537.433 254.709C537.385 254.758 537.346 254.806 537.307 254.855C535.875 254.322 534.626 253.605 533.561 252.714C532.496 251.823 531.576 250.768 530.811 249.548C530.046 248.327 529.398 246.952 528.885 245.431C528.372 243.911 527.936 242.245 527.607 240.444L528.13 240.357L528.12 240.376ZM531.024 239.708C531.295 240.066 531.557 240.454 531.818 240.87C532.08 241.286 532.322 241.683 532.544 242.061C532.767 242.449 532.941 242.778 533.067 243.068L532.593 243.369C532.476 243.068 532.312 242.72 532.099 242.323C531.886 241.926 531.644 241.519 531.383 241.102C531.121 240.686 530.86 240.299 530.589 239.931L531.024 239.708Z" fill="black"/>
</g>
<defs>
<clipPath id="clip0_25_114">
<rect width="782" height="255" fill="white"/>
</clipPath>
</defs>
</svg>
