<svg width="599" height="375" viewBox="0 0 599 375" fill="none" xmlns="http://www.w3.org/2000/svg">
<g clip-path="url(#clip0_25_108)">
<path d="M0.149902 189.532C63.4569 237.365 130.594 281.208 203.543 313.353C259.83 338.154 321.379 357.698 382.044 368.774C404.73 372.918 452.053 379.328 472.646 369.777C478.553 367.04 485.194 359.561 479.292 353.494C473.794 347.839 456.382 349.792 448.378 348.977C443.199 348.45 436.748 347.287 431.57 346.323C428.339 345.722 424.059 344.912 420.993 343.923C420.469 343.754 419.485 343.799 419.605 343.083C435.449 345.126 451.793 346.1 467.812 345.583C478.768 345.23 506.057 343.352 514.221 336.112C518.426 332.38 518.461 325.438 512.978 322.958C504.724 319.227 489.978 319.927 480.78 319.222L476.531 318.238C485.034 317.149 493.698 318.054 502.267 317.756C512.938 317.388 528.887 316.966 535.059 306.66C538.504 300.905 534.644 294.227 528.742 292.368C513.482 287.568 493.299 293.556 477.285 290.406L471.043 289.422C484.89 287.633 501.972 287.33 514.491 280.731C520.623 277.501 529.886 270.022 524.473 262.33C518.516 253.868 503.086 255.319 493.738 255.607C467.243 256.417 445.791 256.869 419.49 251.517C417.818 251.179 409.334 249.4 408.615 248.923C408.41 248.789 407.96 248.302 408.12 248.178C412.689 247.656 417.248 246.687 421.692 245.559C431.47 243.085 453.031 237.445 458.474 228.957C464.716 219.233 460.312 210.05 449.186 208.047C439.215 206.253 421.702 212.554 411.241 214.756C385.405 220.192 357.477 224.654 330.976 223.322C321.399 222.84 301.525 220.599 299.862 208.534C299.083 202.879 305.195 199.302 310.054 198.536C322.742 196.529 337.348 197.99 350.221 194.283L355.689 192.524C349.976 193.026 344.214 194.238 338.487 194.526C322.303 195.341 300.956 195.247 285.116 192.439C279.669 191.475 267.145 188.812 264.968 183.172C261.143 173.268 271.889 171.47 278.785 169.393L295.773 166.182C289.026 166.585 282.3 166.6 275.529 166.655C265.752 166.734 256.149 167.34 248.37 159.931C242.392 154.237 243.766 144.467 251.825 141.575C263.979 137.212 288.297 140.944 302.509 139.339L306.259 138.355C293.865 137.381 279.024 136.562 267.634 131.324C259.535 127.597 249.593 119.761 256.913 110.364C263.215 102.275 280.003 105.027 289.016 105.077C297.985 105.122 307.063 105.331 316.021 105.082C334.357 104.575 352.783 100.993 370.674 97.1017L338.117 88.515C328.085 85.6379 315.042 76.9071 319.002 64.8123C322.233 54.9386 336.05 55.53 344.394 56.4294C371.049 59.3164 397.494 68.728 424.364 70.2634C459.793 72.2908 493.968 60.4295 524.987 44.6873C550.673 31.6533 574.492 15.3894 598.88 0.203735" stroke="black" stroke-miterlimit="10"/>
</g>
<defs>
<clipPath id="clip0_25_108">
<rect width="599" height="375" fill="white"/>
</clipPath>
</defs>
</svg>
