<svg width="78" height="78" viewBox="0 0 78 78" fill="none" xmlns="http://www.w3.org/2000/svg">
<circle cx="39" cy="39" r="38.5" stroke="black"/>
<path d="M50.7045 39.5114C51.9261 39.5114 53.0862 39.7718 54.1847 40.2926C55.2831 40.8134 56.2538 41.6184 57.0966 42.7074C57.9489 43.7869 58.6165 45.1884 59.0994 46.9119C59.5919 48.6259 59.8381 50.6903 59.8381 53.1051C59.8381 55.2737 59.6629 57.3381 59.3125 59.2983C58.9716 61.2491 58.4271 62.9867 57.679 64.5114C56.9309 66.0265 55.9555 67.2197 54.7528 68.0909C53.5502 68.9621 52.0871 69.3977 50.3636 69.3977C48.858 69.3977 47.5369 69.071 46.4006 68.4176C45.2642 67.7642 44.3504 66.8598 43.6591 65.7045C42.9773 64.5398 42.5653 63.1951 42.4233 61.6705H44.1847C44.3835 63.4413 45.018 64.8996 46.0881 66.0455C47.1581 67.1818 48.5833 67.75 50.3636 67.75C52.8731 67.75 54.7955 66.5142 56.1307 64.0426C57.4659 61.571 58.1335 58.0341 58.1335 53.4318H57.9773C57.5985 54.3409 57.035 55.1458 56.2869 55.8466C55.5483 56.5379 54.6913 57.0777 53.7159 57.4659C52.7405 57.8542 51.7131 58.0483 50.6335 58.0483C49.0521 58.0483 47.608 57.6458 46.3011 56.8409C44.9943 56.036 43.9527 54.9328 43.1761 53.5312C42.3996 52.1297 42.0114 50.5436 42.0114 48.7727C42.0114 47.1061 42.3712 45.5672 43.0909 44.1562C43.8201 42.7453 44.8333 41.6184 46.1307 40.7756C47.4375 39.9233 48.9621 39.5019 50.7045 39.5114ZM50.7045 41.1591C49.3693 41.1591 48.1761 41.5 47.125 42.1818C46.0833 42.8636 45.2595 43.7822 44.6534 44.9375C44.0568 46.0928 43.7585 47.3712 43.7585 48.7727C43.7585 50.2027 44.0663 51.4953 44.6818 52.6506C45.3068 53.7964 46.1496 54.7102 47.2102 55.392C48.2803 56.0644 49.483 56.4006 50.8182 56.4006C51.8598 56.4006 52.8258 56.1922 53.7159 55.7756C54.6061 55.3494 55.3684 54.767 56.0028 54.0284C56.6468 53.2803 57.1203 52.4328 57.4233 51.4858C57.7263 50.5294 57.8021 49.5303 57.6506 48.4886C57.4422 46.9735 57.0161 45.6714 56.3722 44.5824C55.7377 43.4839 54.9328 42.6411 53.9574 42.054C52.9915 41.4574 51.9072 41.1591 50.7045 41.1591Z" fill="black"/>
<path d="M32.1932 9.90909V39H30.4176V11.7841H30.2472L23.7131 16.1165V14.2131L30.1903 9.90909H32.1932Z" fill="black"/>
<line x1="60.4078" y1="7.28937" x2="16.4078" y2="69.2894" stroke="black"/>
</svg>
